<?xml version="1.0" encoding="utf-8"?>
<!-- Generator: Adobe Illustrator 24.2.0, SVG Export Plug-In . SVG Version: 6.00 Build 0)  -->
<svg version="1.1" id="图层_1" xmlns="http://www.w3.org/2000/svg" xmlns:xlink="http://www.w3.org/1999/xlink" x="0px" y="0px"
	 viewBox="0 0 700 700" style="enable-background:new 0 0 700 700;" xml:space="preserve">
<style type="text/css">
	.st0{fill:#F2F5FA;}
	.st1{fill:#9FC3FD;}
	.st2{fill:#FFFFFF;}
	.st3{fill:#4055EC;}
	.st4{fill:none;stroke:#4055EC;stroke-width:0.4857;stroke-linecap:round;stroke-linejoin:round;stroke-miterlimit:10;}
	.st5{fill:none;stroke:#4055EC;stroke-width:0.7286;stroke-linecap:round;stroke-miterlimit:10;}
	.st6{fill:none;stroke:#FFFFFF;stroke-width:0.4857;stroke-linecap:round;stroke-linejoin:round;stroke-miterlimit:10;}
	.st7{fill:#D3E0F1;}
	.st8{fill:none;stroke:#FFFFFF;stroke-width:0.4857;stroke-linejoin:round;stroke-miterlimit:10;}
	.st9{fill:none;stroke:#0600A0;stroke-width:1.7;stroke-linecap:round;stroke-linejoin:round;stroke-miterlimit:10;}
	.st10{fill:#4052F2;}
	.st11{fill:#455A64;}
	.st12{opacity:0.44;}
	.st13{filter:url(#Adobe_OpacityMaskFilter);}
	.st14{filter:url(#Adobe_OpacityMaskFilter_1_);}
	.st15{mask:url(#SVGID_1_);fill:url(#SVGID_2_);}
	.st16{fill:url(#SVGID_3_);}
	.st17{filter:url(#Adobe_OpacityMaskFilter_2_);}
	.st18{filter:url(#Adobe_OpacityMaskFilter_3_);}
	.st19{mask:url(#SVGID_4_);fill:url(#SVGID_5_);}
	.st20{fill:url(#SVGID_6_);}
	.st21{fill:#E2EAF5;}
	.st22{fill:#85A9FF;}
	.st23{fill-rule:evenodd;clip-rule:evenodd;fill:#85A9FF;}
	.st24{fill-rule:evenodd;clip-rule:evenodd;fill:#FFFFFF;}
	.st25{fill-rule:evenodd;clip-rule:evenodd;fill:#9FC3FD;}
	.st26{fill-rule:evenodd;clip-rule:evenodd;fill:#E2EAF5;}
	.st27{fill:#FFCAE1;}
	.st28{fill:#FF5500;}
	.st29{fill:#342DEC;}
	.st30{fill:#FF7206;}
	.st31{fill-rule:evenodd;clip-rule:evenodd;fill:#FDB2D0;}
	.st32{fill-rule:evenodd;clip-rule:evenodd;fill:#FFCAE1;}
	.st33{opacity:0.1;fill:#42210B;}
	.st34{fill-rule:evenodd;clip-rule:evenodd;fill:#342DEC;}
	.st35{fill:#0600A0;}
	.st36{fill-rule:evenodd;clip-rule:evenodd;fill:#0600A0;}
	.st37{fill:#FCAA23;}
	.st38{fill-rule:evenodd;clip-rule:evenodd;fill:#FF5500;}
	.st39{opacity:0.1;fill-rule:evenodd;clip-rule:evenodd;fill:#42210B;}
	.st40{fill:#FFF7CB;}
	.st41{opacity:0.2;}
</style>
<g>
	<path class="st0" d="M147.5,552.1c-58.5,0-110.3-51.3-119.5-107.3C19.8,394.6,44.4,339.1,88,312.5c19.5-11.9,41.8-17.6,64.1-21
		c21.9-3.3,47.1-3.7,66.4-15.9c27-17.1,19.2-48.9-6.5-63c-20.5-11.2-37.8-45.1-18-64.5c5.1-5,11.8-8.2,18.7-10.5
		c74.8-24.6,165.9-10.2,237.4,19.3c92.2,38,206.2,123.2,179.3,236.3c-12.3,51.7-39.7,100.6-67.5,145.4c-2.3,3.7-4.8,7.5-8.3,10.1
		c-9.8,7.1-22.6,2.3-33.6,2.3c-12.8-0.1-25.5,0-38.3,0c-30.5,0-61,0.1-91.5,0.2c-59.1,0.2-118.1,0.6-177.2,0.8
		C191.1,552,169.3,552.1,147.5,552.1z"/>
	<g>
		<g>
			<path class="st1" d="M160.1,356.8c-8.9-2.3-18.4-4.1-27.2-1.5c-8.8,2.7-16.5,11.1-15.2,20.2c0.6,4.4,3.2,8.3,6,11.7
				c21.7,26.5,58.7,33.1,90.3,46.4c40.9,17.3,60.9,45.7,90.1,76.4c34.6,36.4,21.7-7.6,9.2-30.7C281.3,420.4,225.3,373.9,160.1,356.8
				z"/>
		</g>
		<path class="st1" d="M302.4,525.3c-29.7-71.8-90.6-128.5-165.6-149"/>
	</g>
	<g>
		<path class="st2" d="M219.9,370.8c-13.2-12.2-29.6-22.9-47.5-22.5c-5.8,0.1-11.8,1.5-16.5,5.1c-11.8,9.1-10,28.3-0.9,40.2
			c9,11.8,22.9,18.7,35.1,27.2c35,24.4,58,65.3,60.6,107.9c0.3,4.5,0.4,9.2,2.3,13.4c1.9,4.1,6.2,7.6,10.6,6.9
			c25-3.8,12.4-73.9,8.8-88C263.9,426.7,245.8,394.8,219.9,370.8z"/>
		<path class="st2" d="M243.2,553.4c9.5-70.8-24.9-145.6-84.8-184.5c-3.3-2.1-7.1-4.2-10.8-3.1"/>
	</g>
	<g>
		<path class="st3" d="M152.5,517.8c-5.7-2.4-11.6-5.2-15.2-10.2c-3.6-5-3.8-13,1.2-16.7c2.3-1.7,5.4-2.3,7.3-4.7
			c0.8-1,1.2-2.4,0.9-3.7c-0.5-1.9-2.1-2.2-3.6-2.6c-7.4-1.6-14.9-3.3-22.3-4.9c-7.5-1.7-15.7-3.7-20.6-9.7
			c-1.2-1.5-2.2-3.2-2.4-5.1c-0.1-1.6,0.3-3.1,1-4.6c3.6-6.8,1.5-15.1-4.9-19.3c-5.3-3.5-10.4-7.3-15.3-11.4c-0.8-0.7-1.7-1.4-2-2.4
			c-0.4-1.2,0-2.6,0.7-3.7c3.3-5,10.9-4,16.3-1.4c5.4,2.6,11.1,6.2,16.9,4.6c3.5-1,6.2-3.7,9.1-5.9c5.2-3.8,12.5-5.8,18.3-3
			c12.7,6.2,9.2,28.3,21.6,35.1c9.1,5,24.3-6.9,34.1-3.6c8.9,3,15.7,19,18.9,27.9c3.5,9.7,18.4,56.7,6.8,62.6
			c-7.4,3.7-25.7-3.8-33.2-5.8C174.7,526.2,163.5,522.4,152.5,517.8z"/>
		<g>
			<path class="st4" d="M106.1,464.5c12.5-4.6,39.4-1.7,55.4,7.2"/>
			<path class="st4" d="M145.1,458.7c-2.8-16.2-11.3-33-19.7-42.4"/>
			<path class="st4" d="M164.2,508.9c0.8-0.7,2-0.7,3-0.6c16.9,1.1,33.5,6.5,47.7,15.7"/>
			<path class="st4" d="M197.5,503.6c0.3-12.1-4.5-23.7-9.6-34.7"/>
		</g>
	</g>
	<g>
		<path class="st3" d="M287.1,471.5c-4.8-3.9-9.7-8.2-11.7-14.1c-2-5.8,0-13.5,5.8-15.7c2.7-1,5.8-0.7,8.3-2.5
			c1.1-0.8,1.8-2,1.8-3.3c0-1.9-1.4-2.7-2.7-3.5c-6.7-3.7-13.4-7.3-20.1-11c-6.8-3.7-14-7.9-17-15c-0.7-1.8-1.2-3.7-0.8-5.6
			c0.3-1.6,1.2-2.9,2.3-4.1c5.3-5.5,5.6-14.1,0.7-19.9c-4.1-4.9-7.9-9.9-11.5-15.2c-0.6-0.9-1.2-1.8-1.3-2.9
			c-0.1-1.3,0.7-2.5,1.7-3.3c4.6-3.9,11.6-0.8,16.1,3.2c4.5,4,8.9,9.1,14.9,9.1c3.6,0.1,7-1.8,10.4-3.1c6.1-2.2,13.6-2.1,18.4,2.2
			c10.5,9.5,0.9,29.7,10.9,39.8c7.3,7.3,25.2,0.2,33.7,6.1c7.7,5.4,9.8,22.6,10.3,32c0.6,10.3,1.8,59.6-11,62
			c-8.1,1.5-23.6-10.8-30.2-14.9C306,485.8,296.3,478.9,287.1,471.5z"/>
		<g>
			<path class="st4" d="M245.5,356C305.4,411.8,346.1,463,370,541"/>
			<path class="st4" d="M257.4,407.3c13.3-0.9,38.3,9.4,51.1,22.4"/>
			<path class="st4" d="M296.5,412.7c1.9-16.3-1.6-34.8-7-46.3"/>
			<path class="st4" d="M300.8,466.2c0.9-0.5,2.1-0.1,3.1,0.2c15.9,5.8,30.3,15.7,41.4,28.4"/>
			<path class="st4" d="M334.2,470.5c3.7-11.5,2.3-24.1,0.5-36"/>
		</g>
	</g>
	<g>
		<g>
			<path class="st2" d="M617.9,294.2c-2.6,7.5-6,14.3-8.6,18.4c-5.4,8.7-12.1,16.5-19.5,23.6c-5,4.8-18.7,12.6-17.4,20.9
				c0.4,2.8,3,4.9,5.7,5.6c6.5,1.8,11.5-0.6,17.1,4.5c4.3,3.9,6.1,10,5.7,15.7c-0.7,9.1-5.6,16.5-10.6,23.9
				c-9.7,14.1-19.7,27-31.5,40c-7.8,8.6-22.6,30.5-34.9,31.3c-19.4,1.3-35.9-63.4-39.3-78.8c-3.1-14.1-7.4-36.7,2.4-49.1
				c10.8-13.6,36.7-11.6,46.3-27.7c13.2-22.1-5.5-46.9,8.4-63.8c6.3-7.8,16.2-8,24.9-5.3c4.9,1.5,9.3,5,14.1,6.4
				c9.7,2.8,17.5-6.6,26.8-5.3C626,257.2,623.8,277.5,617.9,294.2z"/>
			<g>
				<path class="st2" d="M619.4,258.1c-88.9,63-103.8,192.7-106.4,298.2"/>
				<path class="st2" d="M612.7,304.4c-26.9,2.5-53.4,28.5-66.1,50.8"/>
				<path class="st2" d="M560,323.1c-5.1-21.4-8.1-46.1-0.5-67.3"/>
				<path class="st2" d="M569.7,405.2c-1.6-0.1-2.9,0.7-4.1,1.6c-19.1,14.7-34.7,33.4-45.1,55.1"/>
				<path class="st2" d="M526,424.7c-9.7-14.9-12.7-32.2-14.5-49.6"/>
			</g>
		</g>
	</g>
	<g>
		<path class="st5" d="M512.7,486.8c2.8-13.9,5.8-27.7,9.6-41.3c10.4-37.3,28.7-74.7,61.1-95.9"/>
		<path class="st3" d="M596.7,332.9c1.8-0.6,3.9-0.9,5.3,0.2c1.5,1.2,1.6,3.4,0.8,5.1c-0.8,1.7-2.3,2.9-3.7,4.1
			c-2.9,2.4-21.7,19.2-20.6,7.4C579.3,342.2,590.4,334.9,596.7,332.9z"/>
		<path class="st3" d="M538,360.9c-0.7-1.7-1.2-3.8-0.5-5.3c0.7-1.5,2.5-1.9,3.9-1.3c1.4,0.6,2.6,2,3.7,3.3
			c2.3,2.7,17.9,19.8,8.4,19.8C547.6,377.4,540.4,367,538,360.9z"/>
		<path class="st3" d="M522.9,455.3c-1-1.2-2-2.8-1.7-4.3c0.2-1.5,1.6-2.2,2.9-2c1.3,0.2,2.7,1,3.9,1.8c2.6,1.6,19.9,11.8,12,14.2
			C535,466.5,526.4,459.8,522.9,455.3z"/>
		<path class="st3" d="M505.9,432.8c-1-1-2.1-2.4-2.1-3.8c0-1.4,1.3-2.2,2.5-2.2c1.3,0,2.6,0.6,3.8,1.2c2.6,1.3,19.7,8.9,12.7,12
			C518.3,441.9,509.6,436.5,505.9,432.8z"/>
		<path class="st3" d="M551.3,339.2c-0.3-3.1,0.5-6.9,3.5-7.9c1.8-0.6,3.9,0.2,5.3,1.6c1.4,1.4,2.2,3.2,3,4.9
			c2.9,6.5,5.9,13.1,6.7,20.1c1,8.8-9.3-0.3-11.4-2.7C554.3,350.8,551.8,345.1,551.3,339.2z"/>
		<path class="st3" d="M515,392.7c-1.3-2.4-2.1-5.8-0.1-7.7c1.3-1.2,3.3-1.2,4.9-0.6c1.6,0.6,2.9,1.8,4.2,2.9
			c4.7,4.2,9.5,8.5,12.8,13.9c4.1,6.8-7.7,3.2-10.3,2C521.7,401,517.5,397.3,515,392.7z"/>
		<path class="st3" d="M587.6,361.2c2.8,0.7,5.6,1.5,8.1,2.9c2.5,1.4,4.7,3.6,5.6,6.3c0.1,0.4,0.2,0.8,0.1,1.1
			c-0.2,0.8-1,1.2-1.7,1.4c-4.9,1.8-10.6,1.1-15.3-1.1c-4.8-2.2-8.7-5.9-12.1-10C566.4,354.7,585.3,360.6,587.6,361.2z"/>
		<path class="st3" d="M565.1,388.7c2.3,1.7,4.6,3.3,6.4,5.4c1.8,2,3.1,4.4,3,6.7c0,0.3-0.1,0.6-0.3,0.8c-0.4,0.4-1.3,0.4-2,0.3
			c-5.1-0.8-10-3.6-13.6-7.1c-3.6-3.5-6-7.7-7.7-11.9C548,375.5,563.2,387.4,565.1,388.7z"/>
		<path class="st3" d="M576,374.8c2.3,1.6,4.7,3.2,6.5,5.2c1.9,1.9,3.2,4.2,3.2,6.3c0,0.3,0,0.6-0.2,0.8c-0.4,0.4-1.2,0.4-2,0.2
			c-5.1-0.9-10-3.6-13.7-7c-3.7-3.4-6.2-7.3-8-11.3C558.6,362,574.1,373.5,576,374.8z"/>
		<path class="st3" d="M537.2,436.9c1.5,1.3,3.1,2.6,4.3,4.2c1.2,1.6,1.9,3.7,1.7,5.7c0,0.3-0.1,0.5-0.3,0.8c-0.3,0.4-1,0.5-1.5,0.4
			c-3.6-0.3-7-2.3-9.3-5.1c-2.4-2.8-3.8-6.3-4.7-9.9C525.8,426.6,536,435.8,537.2,436.9z"/>
		<path class="st3" d="M545.8,421.3c1.8,1.7,3.7,3.5,5.1,5.5c1.4,2,2.3,4.2,2,6c0,0.2-0.1,0.5-0.3,0.6c-0.4,0.3-1.1,0.1-1.8-0.1
			c-4.4-1.4-8.4-4.5-11.2-8c-2.8-3.5-4.5-7.3-5.6-11.1C532.1,407.7,544.3,419.9,545.8,421.3z"/>
		<path class="st3" d="M546.8,387.9c-1.3-4.8-4.7-9.1-9.1-11.5c-1.5-0.8-3.2-1.5-5-1.3c-1.7,0.2-3.4,1.4-3.7,3.1
			c-0.4,2.3,1.7,4.3,3.7,5.5c3,1.9,6.2,3.4,9.5,4.5c1,0.3,2.1,0.6,3.1,0.4c1-0.3,1.9-1.4,1.5-2.4"/>
		<path class="st3" d="M528.9,422.8c-1.3-4.8-4.7-9.1-9.1-11.5c-1.5-0.8-3.2-1.5-5-1.3c-1.7,0.2-3.4,1.4-3.7,3.1
			c-0.4,2.3,1.7,4.3,3.7,5.5c3,1.9,6.2,3.4,9.5,4.5c1,0.3,2.1,0.6,3.1,0.4c1-0.3,1.9-1.4,1.5-2.4"/>
		<path class="st3" d="M564,410.6c0.9,1.1,1.9,2.5,1.4,3.8c-0.5,1.4-2.4,1.8-3.9,1.5c-3.9-0.6-6.8-3.7-9.5-6.6
			c-2.9-3.2-5.8-6.3-8.7-9.5c-3.7-4.1-0.6-4.1,3.2-2.4C553.1,400.5,559.1,405.1,564,410.6z"/>
	</g>
	<g>
		<path class="st1" d="M83.7,551.3h274.8c0.4-0.2,0.8-0.3,1.1-0.5c0,0,0,0,0,0c4-1.7,7.6-4,10.3-7.3c0.4-0.5,0.8-1,1.1-1.6
			c3.7-5.6,3.8-12.6,2.3-19.1c-0.8-3.3-2-6.4-3.4-9.3c-0.3-0.7-0.7-1.3-1-2c-3.2-5.9-7.6-11.2-12.9-15.3c0,0,0,0-0.1-0.1
			c-2.9-2.2-6-4-9.3-5.5c-9.2-3.9-19.4-4-29.5-3.6c-5.1,0.2-10.1,0.5-14.9,0.6c-2.2,0-4.6,0-7.2-0.1c1.1,5.1,2.1,9.8,3,13.7
			c4,18.5,1.9,9.1,4.3,20.1c0.1,0.5,0.2,1,0.3,1.4c0.6,2.9,1.1,5.3,1.6,7.4c0,0.2,0.1,0.4,0.1,0.6c0,0,0,0,0,0
			c1.5,7.1-3.9,13.8-11.2,13.8c0,0-0.1,0-0.1,0c-2.9-0.2-5.9-0.3-8.8-0.4c-0.1,0-0.2,0-0.2,0c-2.7-0.1-5.4-0.3-8.1-0.4
			c-0.3-0.7-0.5-1.3-0.8-2c-0.1-0.4-0.3-0.8-0.4-1.1c0-0.1-0.1-0.2-0.1-0.3c-0.1-0.3-0.2-0.5-0.3-0.8c-0.1-0.2-0.2-0.5-0.3-0.7
			c-0.4-0.9-0.7-1.9-1.1-2.8c-0.1-0.2-0.2-0.5-0.3-0.7c-0.2-0.4-0.3-0.8-0.5-1.2c-0.1-0.3-0.2-0.5-0.3-0.8c-0.1-0.2-0.1-0.3-0.2-0.5
			c-0.1-0.3-0.2-0.6-0.3-0.8c-0.1-0.3-0.2-0.6-0.4-0.9c-0.1-0.2-0.1-0.3-0.2-0.5c-0.1-0.2-0.1-0.3-0.2-0.5c-0.4-0.9-0.7-1.9-1.1-2.9
			c0-0.1-0.1-0.2-0.1-0.3c-0.1-0.4-0.3-0.8-0.4-1.1c0-0.1-0.1-0.3-0.2-0.4c-0.2-0.4-0.3-0.9-0.5-1.3c0-0.1-0.1-0.2-0.1-0.3
			c-0.6-1.6-1.2-3.3-2.8-7.3c-0.1-0.1-0.1-0.3-0.2-0.4c-0.6-1.5-1.3-3.3-2.1-5.5c-5.4-14.1-16.3-42.5-23-59.6
			c-3.7-9.5,55-1.2,49-9.2c-22.7-30.5-71.8-68.8-112.3-44.6c-11.9,7.1-17,20.3-12.4,35.8c1.5,5.1,2.8,10.6,2.9,16
			c0.1,3.6-1,7.3-3.2,10.1c-1.5,1.8-3.4,3.2-5.9,3.8c-7.2,1.8-10.2-4.4-16.1-6.5c-5.1-1.7-10.3-1.4-15.4,0.1
			c-5,1.5-9.4,4.3-12.6,8.1c-6,6.8-8.3,16.5-3.6,25.4c1.5,2.9,3.5,5.4,5.6,7.8c1.1,1.2,2.2,2.5,3.3,3.7c2.9,3.2,9.9,9.7,6.3,14.4
			c-1.2,1.6-3.1,2.5-4.9,3.1c-1.1,0.4-2.2,0.8-3.3,1.1c-5.2,1.5-10.6,2.2-15.9,3.6c-5.9,1.6-11.9,4.2-15.6,9
			c-0.3,0.4-0.6,0.8-0.9,1.2C81.8,539.1,82,545.4,83.7,551.3z"/>
		<g>
			<g>
				<path class="st6" d="M239.9,544.8c0,0-11.7-24.1-21.8-52.1c-5.7-15.9-14.6-55.9-16.8-70.6"/>
				<path class="st6" d="M136.7,485c4.5,13.2,68.2,21.1,90.7,32"/>
				<path class="st6" d="M107.9,539.9c0,0,36.2-9.1,80.4-34.2"/>
				<path class="st6" d="M270.3,440.1c0,0-56.4,24.6-53.4,48.9"/>
			</g>
		</g>
	</g>
	<path id="XMLID_3_" class="st2" d="M336.1,423.9c0-0.1-0.1-0.2-0.1-0.4c-9.2-22.4-33.8-36.2-58.2-26.2c-19.3,8-24.8,26.5-23.3,41.1
		l0,0c-9.2-11.4-26.1-20.7-45.4-12.7c-24.3,10-32.1,37.2-22.9,59.5c0,0.1,0.1,0.2,0.2,0.4c1.9,4.9,22.4,54.4,113.9,63.9l0,0
		c0,0,0,0,0,0c0,0,0,0,0,0c0,0,0,0,0,0c0,0,0,0,0,0l0,0C358.5,478.2,338.2,428.7,336.1,423.9z"/>
	<g>
		<g>
			<path class="st7" d="M667.7,416.9h-30.1h-12.2h-23.3c-1.7,0-2.9-1.6-2.5-3.2c2.7-9.5,2.9-19.7,2.9-29.4c0-5.4,0.3-11.4-0.3-17.3
				c-0.6-6-2.1-11.7-5.6-16.2c-3.9-5-9.7-8.8-16.2-8.8c-15,0-17.4,14.7-18.8,26.6c-1.6,13.9-2.3,28.2-8.4,41
				c-4.3,9-10.4,16.6-19.9,20.4c-7.3,2.9-12.7,5.2-20.5,6.7c-1.2,0.2-2.1,1.3-2.1,2.5v97c0,1.4,1.1,2.6,2.6,2.6h26.8
				c0.8,0,1.6,0.4,2.1,1.1c5.3,7.1,13.8,11.7,23.3,11.7h41.7h30.3h12c12.3,0,22.3-10,22.3-22.3l0,0c0-3.2-0.8-6.2-2.1-8.8
				c-0.5-1.1-0.3-2.3,0.7-3.1c4.6-3.6,7.5-11.9,7.5-18.1v-2.6c0-3.2-0.8-6.2-2.1-8.8c-0.5-1.1-0.3-2.3,0.7-3.1
				c4.6-3.6,7.5-9.2,7.5-15.4v-2.6c0-3.2-0.8-6.2-2.1-8.8c-0.5-1.1-0.3-2.3,0.7-3.1c4.6-3.6,7.5-9.2,7.5-15.4l0,0
				C690,427,680,416.9,667.7,416.9z"/>
			<path class="st7" d="M496.8,548.6h-51.2c-0.1,0-0.3-0.1-0.3-0.3V426c0-0.1,0.1-0.3,0.3-0.3h51.2c0.1,0,0.3,0.1,0.3,0.3v122.4
				C497.1,548.5,497,548.6,496.8,548.6z"/>
		</g>
	</g>
	<path class="st1" d="M513.5,505.2c1.3-3.5,2.9-7.1,5.9-9.3c3-2.2,7.8-2.5,10.1,0.4c1.1,1.4,1.5,3.2,3,4.3c0.6,0.5,1.5,0.7,2.2,0.4
		c1.1-0.4,1.3-1.3,1.5-2.2c0.8-4.5,1.7-9,2.5-13.6c0.9-4.6,1.9-9.5,5.4-12.6c0.9-0.8,1.9-1.4,3.1-1.5c1-0.1,1.9,0.1,2.8,0.5
		c4.2,2,9.1,0.6,11.6-3.3c2-3.3,4.2-6.4,6.6-9.4c0.4-0.5,0.8-1,1.4-1.3c0.7-0.3,1.6-0.1,2.2,0.4c3.1,1.9,2.6,6.5,1.2,9.8
		c-1.4,3.3-3.5,6.8-2.4,10.3c0.7,2.1,2.4,3.7,3.7,5.4c2.4,3.1,3.8,7.4,2.2,11c-3.5,7.8-16.9,6.1-20.7,13.7
		c-2.8,5.6,4.6,14.5,2.8,20.4c-1.6,5.4-11.1,9.8-16.4,11.9c-5.8,2.3-33.8,12.2-37.6,5.3c-2.4-4.4,1.8-15.5,2.9-20.1
		C508.8,518.7,510.9,511.9,513.5,505.2z"/>
	<g>
		<path class="st8" d="M571.9,459.8c-20.7,44.8-42.5,77.6-82.6,106"/>
		<path class="st8" d="M544.7,476.2c3,7.5,3.6,25.2-1.4,35"/>
		<path class="st8" d="M549,502.9c9.7-2,19.6-10.8,25.1-16"/>
		<path class="st8" d="M519.1,512.1c0.4,0.5,0.5,1.2,0.4,1.8c-0.3,10.2,0.9,21.6-4.4,30.4"/>
		<path class="st8" d="M523.8,535.6c7.3,0,13.3-6.7,19.8-10"/>
	</g>
	<line class="st9" x1="60.6" y1="552.7" x2="674.5" y2="552.7"/>
	<g>
		<path class="st10" d="M483.6,565.8l-121.7-0.5c-14.6-0.1-26.5-11-26.4-24.4l1.3-279.9c0.1-13.4,12-24.3,26.6-24.2l121.7,0.5
			c14.6,0.1,26.5,11,26.4,24.4l-1.3,279.9C510.2,555,498.3,565.8,483.6,565.8z"/>
	</g>
	<g>
		<g>
			<path class="st2" d="M503.5,264l-1.3,273.2c0,9.4-8.4,17-18.7,17l-20.7-0.1l-10.3,0l-90.4-0.4c-2,0-3.9-0.3-5.6-0.8
				c-7.5-2.2-12.9-8.7-12.8-16.3l0.5-116.5l0-9.5l0.1-16.7l0.2-41.9l0.4-88.6c0-9.4,8.4-17,18.7-17l20.7,0.1l8.3,0
				c3.2,0,65.8,0.3,68.9,0.3l23.6,0.1c2,0,4,0.3,5.8,0.9c3.9,1.2,7.2,3.5,9.5,6.6c1.4,1.9,2.5,4.2,2.9,6.6
				C503.4,261.9,503.5,262.9,503.5,264z"/>
		</g>
	</g>
	<g>
		<g>
			<rect x="362.8" y="432.8" class="st1" width="120.2" height="7.4"/>
		</g>
		<g>
			<g>
				<path class="st1" d="M478.7,286.5c0,0.3-25.7,0.5-57.3,0.5c-31.7,0-57.3-0.2-57.3-0.5c0-0.3,25.7-0.5,57.3-0.5
					C453.1,286,478.7,286.2,478.7,286.5z"/>
			</g>
		</g>
	</g>
	<g>
		<g>
			<path class="st11" d="M478.7,475.4c0,0.3-25.7,0.5-57.3,0.5c-31.7,0-57.3-0.2-57.3-0.5c0-0.3,25.7-0.5,57.3-0.5
				C453.1,474.9,478.7,475.1,478.7,475.4z"/>
		</g>
	</g>
	<g>
		<g>
			<path class="st11" d="M478.7,488.8c0,0.3-25.7,0.5-57.3,0.5c-31.7,0-57.3-0.2-57.3-0.5c0-0.3,25.7-0.5,57.3-0.5
				C453.1,488.3,478.7,488.6,478.7,488.8z"/>
		</g>
	</g>
	<g class="st12">
		<g>
			<g>
				<g>
					<rect x="364.1" y="301.8" class="st1" width="120.5" height="107.2"/>
				</g>
			</g>
		</g>
		<g>
			<g>
				<g>
					<polygon class="st3" points="373.5,399.9 406.8,344.7 434.1,380 450.6,361.2 475.3,399.9 					"/>
				</g>
			</g>
		</g>
		<g>
			<g>
				<g>
					<path class="st3" d="M445.7,334c0,4.4-3.9,8-8.7,8c-4.8,0-8.7-3.6-8.7-8c0-4.4,3.9-8,8.7-8C441.8,326,445.7,329.6,445.7,334z"
						/>
				</g>
			</g>
		</g>
	</g>
	<g>
		<g>
			<g>
				<g>
					<path class="st2" d="M475.3,400.2c0,0,0-0.2,0-0.4c0-0.3,0-0.7,0-1.3c0-1.1,0-2.8-0.1-4.8c0-4.3-0.1-10.4-0.1-18.2
						c-0.1-15.7-0.1-38-0.3-64.8l0.5,0.5c-29.5,0-64.5,0-101.8,0.1c-0.1,0.1,1.1-1,0.6-0.5v0v0v0.1v0.2v0.4v0.8v1.5v3c0,2,0,4,0,6.1
						c0,4,0,8,0,11.9c0,7.9,0,15.6,0,23.1c0,15,0,29.2-0.1,42.3l-0.5-0.5c30.4,0.1,55.8,0.2,73.6,0.2c8.9,0.1,15.9,0.1,20.8,0.1
						c2.4,0,4.2,0,5.5,0.1c0.6,0,1.1,0,1.4,0C475.1,400.2,475.3,400.2,475.3,400.2c0,0-0.1,0-0.4,0c-0.4,0-0.8,0-1.4,0
						c-1.3,0-3.1,0-5.4,0.1c-4.8,0-11.8,0.1-20.7,0.1c-17.9,0.1-43.4,0.1-73.9,0.2l-0.5,0v-0.5c0-13.1,0-27.3-0.1-42.3
						c0-7.5,0-15.2,0-23.1c0-3.9,0-7.9,0-11.9c0-2,0-4,0-6.1v-3l0-1.5v-0.8v-0.4v-0.2v-0.1v0v0c-0.5,0.5,0.7-0.7,0.6-0.5
						c37.4,0,72.3,0.1,101.8,0.1l0.5,0l0,0.5c-0.1,26.9-0.2,49.3-0.3,65c-0.1,7.8-0.1,13.9-0.1,18.1c0,2,0,3.6-0.1,4.7
						c0,0.5,0,0.9,0,1.2C475.3,400.1,475.3,400.2,475.3,400.2z"/>
				</g>
			</g>
		</g>
	</g>
	<g>
		<defs>
			<filter id="Adobe_OpacityMaskFilter" filterUnits="userSpaceOnUse" x="344.2" y="246.8" width="146.5" height="147.3">
				<feFlood  style="flood-color:white;flood-opacity:1" result="back"/>
				<feBlend  in="SourceGraphic" in2="back" mode="normal"/>
			</filter>
		</defs>
		<mask maskUnits="userSpaceOnUse" x="344.2" y="246.8" width="146.5" height="147.3" id="SVGID_1_">
			<g class="st13">
				<defs>
					<filter id="Adobe_OpacityMaskFilter_1_" filterUnits="userSpaceOnUse" x="344.2" y="246.8" width="146.5" height="147.3">
						<feFlood  style="flood-color:white;flood-opacity:1" result="back"/>
						<feBlend  in="SourceGraphic" in2="back" mode="normal"/>
					</filter>
				</defs>
				<mask maskUnits="userSpaceOnUse" x="344.2" y="246.8" width="146.5" height="147.3" id="SVGID_1_">
				</mask>
				<linearGradient id="SVGID_2_" gradientUnits="userSpaceOnUse" x1="409.6902" y1="399.2354" x2="422.2383" y2="241.8132">
					<stop  offset="0" style="stop-color:#000000"/>
					<stop  offset="1" style="stop-color:#FFFFFF"/>
				</linearGradient>
				<path class="st15" d="M490.8,247.7L344.5,394l-0.3-0.3l0.2-41.9l90.3-90.3l15.1,0.1c3.2,0,5.7-2.4,5.8-5.5l0-3.9
					c0-3,2.6-5.5,5.8-5.5l23.6,0.1C487,246.9,489,247.2,490.8,247.7z"/>
			</g>
		</mask>
		<linearGradient id="SVGID_3_" gradientUnits="userSpaceOnUse" x1="409.6902" y1="399.2354" x2="422.2383" y2="241.8132">
			<stop  offset="0" style="stop-color:#FFFFFF"/>
			<stop  offset="1" style="stop-color:#FFFFFF"/>
		</linearGradient>
		<path class="st16" d="M490.8,247.7L344.5,394l-0.3-0.3l0.2-41.9l90.3-90.3l15.1,0.1c3.2,0,5.7-2.4,5.8-5.5l0-3.9
			c0-3,2.6-5.5,5.8-5.5l23.6,0.1C487,246.9,489,247.2,490.8,247.7z"/>
		<defs>
			<filter id="Adobe_OpacityMaskFilter_2_" filterUnits="userSpaceOnUse" x="344.1" y="254.3" width="159.1" height="165.7">
				<feFlood  style="flood-color:white;flood-opacity:1" result="back"/>
				<feBlend  in="SourceGraphic" in2="back" mode="normal"/>
			</filter>
		</defs>
		<mask maskUnits="userSpaceOnUse" x="344.1" y="254.3" width="159.1" height="165.7" id="SVGID_4_">
			<g class="st17">
				<defs>
					<filter id="Adobe_OpacityMaskFilter_3_" filterUnits="userSpaceOnUse" x="344.1" y="254.3" width="159.1" height="165.7">
						<feFlood  style="flood-color:white;flood-opacity:1" result="back"/>
						<feBlend  in="SourceGraphic" in2="back" mode="normal"/>
					</filter>
				</defs>
				<mask maskUnits="userSpaceOnUse" x="344.1" y="254.3" width="159.1" height="165.7" id="SVGID_4_">
				</mask>
				<linearGradient id="SVGID_5_" gradientUnits="userSpaceOnUse" x1="344.1275" y1="337.175" x2="503.2022" y2="337.175">
					<stop  offset="0" style="stop-color:#000000"/>
					<stop  offset="1" style="stop-color:#FFFFFF"/>
				</linearGradient>
				<path class="st19" d="M503.2,260.9L344.1,420l0-9.5l156.1-156.1C501.7,256.3,502.7,258.5,503.2,260.9z"/>
			</g>
		</mask>
		<linearGradient id="SVGID_6_" gradientUnits="userSpaceOnUse" x1="344.1275" y1="337.175" x2="503.2022" y2="337.175">
			<stop  offset="0" style="stop-color:#FFFFFF"/>
			<stop  offset="1" style="stop-color:#FFFFFF"/>
		</linearGradient>
		<path class="st20" d="M503.2,260.9L344.1,420l0-9.5l156.1-156.1C501.7,256.3,502.7,258.5,503.2,260.9z"/>
	</g>
	<path class="st21" d="M74.2,254.3c-3.2,0.1-6.4,0.5-9.6,1.3c-27.2,6.9-53.9,35.5-54.6,64.3c-0.7,31.8,26.2,55.8,57,56.8
		c14.6,0.5,32.4-3.7,42.4-14.9c12-13.3,14.9-33.9,14-51.2c-0.3-7-1.4-14.1-3.4-20.8C113.8,269.8,95.9,253.7,74.2,254.3z"/>
	<g>
		<path class="st2" d="M129.3,319.5c0,12-9.7,21.7-21.7,21.7H41.8c-9.3,0-16.8-7.5-16.8-16.8c0-9.3,7.5-16.8,16.8-16.8
			c2,0,4,0.4,5.8,1c2.3-12.9,13.6-22.6,27.1-22.6c10.2,0,19.1,5.5,23.8,13.7c2.7-1.3,5.8-2,9-2C119.6,297.8,129.3,307.6,129.3,319.5
			z"/>
		<polygon class="st1" points="92.6,341.2 87,346.9 64.8,346.9 64.8,316 60.3,316 75.9,301.1 91.6,316 87,316 87,341.2 		"/>
		<polygon class="st22" points="87,346.9 87,346.7 87,341.2 92.6,341.2 		"/>
	</g>
	<g>
		<path class="st21" d="M388.9,104.7c-17,5.1-32,18.6-36.5,36.1c-6.9,26.7,6.6,59.7,34,68.5c28.2,9,70.1,3.7,88.1-22.3
			c8.7-12.7,11.8-29.3,8.3-44.2c-8.1-35-50.8-44.4-81.7-40.6C397,102.6,393,103.5,388.9,104.7z"/>
		<path class="st23" d="M400,130.4l36-10.4l22.7,28.9c0.7,0.9,1.9,2.5,2.7,3.6c0.5,0.7,0.6,1.4,0.4,2.2l-13.3,41.1
			c-0.5,1.4-2,2.2-3.4,1.7l-61.8-20c-1.4-0.5-2.2-2-1.7-3.4l13.3-41.1c0.2-0.6,0.5-1,1-1.4C396.5,131.2,399.1,130.6,400,130.4z"/>
		<path class="st23" d="M436,120l22.6,28.8c0.7,0.9,1.9,2.5,2.7,3.6c0.5,0.7,0.6,1.4,0.4,2.2l-13.3,41.1c-0.5,1.4-2,2.2-3.4,1.7
			l-30.9-10L436,120z"/>
		<polygon class="st24" points="404.4,113.8 452.7,129.4 461.9,143.8 446.3,192 385.5,172.3 		"/>
		<path class="st25" d="M461.7,153.1c0.1,0.5,0.2,1.1,0,1.6l-13.3,41.1c-0.2,0.5-0.5,1-0.9,1.3l-25.9-32.7L461.7,153.1z"/>
		<path class="st25" d="M381.6,175.8c-0.2-0.5-0.2-1.2,0-1.7l13.3-41.1c0.2-0.5,0.5-1,0.9-1.3l25.9,32.7L381.6,175.8z"/>
		<path class="st23" d="M421.7,164.4L421.7,164.4L421.7,164.4l-40.1,11.4c0.3,1.1,1.3,1.6,1.7,1.7l61.8,20c0.4,0.1,1.5,0.3,2.4-0.4
			L421.7,164.4z"/>
		<polygon class="st25" points="461.9,143.8 449.3,139.8 452.7,129.4 		"/>
		<g>
			<g>
				
					<rect x="428.2" y="113.7" transform="matrix(0.3077 -0.9515 0.9515 0.3077 164.5012 505.487)" class="st26" width="2.9" height="52"/>
				
					<rect x="426.4" y="119.4" transform="matrix(0.3077 -0.9515 0.9515 0.3077 157.7733 507.6883)" class="st26" width="2.8" height="52"/>
			</g>
		</g>
		<g>
			<g>
				
					<rect x="440.6" y="130.7" transform="matrix(0.3077 -0.9515 0.9515 0.3077 169.2606 520.0354)" class="st26" width="2.9" height="26"/>
				
					<rect x="438.8" y="136.4" transform="matrix(0.3077 -0.9515 0.9515 0.3077 162.5323 522.237)" class="st26" width="2.8" height="26"/>
			</g>
		</g>
		<g>
			<g>
				<path class="st2" d="M492,149.4c0.5,0,0.5-0.7,0-0.7C491.5,148.7,491.5,149.4,492,149.4L492,149.4z"/>
			</g>
		</g>
	</g>
	<g>
		<path class="st21" d="M204.9,164.9c-7.7,3.4-15,7.8-21.7,13.8c-22.4,20.1-32.2,53.4-11.3,78.3c29.7,35.4,96.1,38.6,132.4,12.2
			c23.5-17.1,25.4-48.9,14.7-74.1C298.5,146.9,247.2,146.4,204.9,164.9z"/>
		<polygon class="st2" points="250.4,200.7 250.4,198.2 233.2,198.2 233.2,185.8 250.4,185.8 250.4,183.3 258.6,192 		"/>
		<polygon class="st2" points="263.5,233.3 265.3,235.1 277.4,222.9 286.2,231.7 274,243.8 275.8,245.6 263.8,245.3 		"/>
		<polygon class="st2" points="217.2,224.1 215.4,225.9 227.5,238 218.8,246.8 206.7,234.6 204.9,236.4 205.2,224.4 		"/>
		<g>
			<path class="st1" d="M223.6,197.5c-1.3-1.3-3.2-2.2-5.2-2.2v0l-23.7,0l0,0.1c0,0,0,0,0,0l0-0.1c-2,0-3.9,0.8-5.2,2.2
				c-1.3,1.3-2.2,3.2-2.2,5.2h0l0,8.6l38.5,0l0-8.6C225.8,200.7,224.9,198.8,223.6,197.5z"/>
			<polygon class="st1" points="198.1,195.4 196,195.4 196,201 198.1,201 197.1,202.8 206.5,210.3 			"/>
			<path class="st1" d="M225.8,202.7l0,8.6l-19.3,0l0-16l11.9,0v0c2,0,3.9,0.8,5.2,2.2C224.9,198.8,225.8,200.7,225.8,202.7z"/>
			<polygon class="st1" points="214.9,195.3 206.5,210.3 198.1,195.3 			"/>
			<polygon class="st2" points="214.9,195.3 217,195.3 217,201 214.9,201 215.9,202.8 206.5,210.3 			"/>
		</g>
		<path class="st2" d="M214,197.5l-15.3,0c-0.7,0-1.2-0.5-1.2-1.2l0-19.8c0-0.7,0.5-1.2,1.2-1.2l15.3,0c0.7,0,1.2,0.5,1.2,1.2
			l0,19.8C215.2,196.9,214.7,197.5,214,197.5z"/>
		<g>
			<path class="st1" d="M300.1,197.5c-1.3-1.3-3.2-2.2-5.2-2.2v0l-23.7,0l0,0.1c0,0,0,0,0,0l0-0.1c-2,0-3.9,0.8-5.2,2.2
				c-1.3,1.3-2.2,3.2-2.2,5.2h0l0,8.6l38.5,0l0-8.6C302.2,200.7,301.4,198.8,300.1,197.5z"/>
			<polygon class="st1" points="274.6,195.3 272.5,195.3 272.5,201 274.6,201 273.5,202.8 283,210.3 			"/>
			<path class="st1" d="M302.2,202.7l0,8.6l-19.3,0l0-16l11.9,0v0c2,0,3.9,0.8,5.2,2.2C301.4,198.8,302.2,200.7,302.2,202.7z"/>
			<polygon class="st1" points="291.3,195.3 283,210.3 274.6,195.3 			"/>
			<polygon class="st2" points="291.3,195.3 293.4,195.3 293.4,200.9 291.3,200.9 292.4,202.8 283,210.3 			"/>
		</g>
		<path class="st2" d="M290.5,197.4l-15.3,0c-0.7,0-1.2-0.5-1.2-1.2l0-19.8c0-0.7,0.5-1.2,1.2-1.2l15.3,0c0.7,0,1.2,0.5,1.2,1.2
			l0,19.8C291.7,196.9,291.2,197.4,290.5,197.4z"/>
		<path class="st2" d="M252,249.6l-15.3,0c-0.7,0-1.2-0.5-1.2-1.2l0-19.8c0-0.7,0.5-1.2,1.2-1.2l15.3,0c0.7,0,1.2,0.5,1.2,1.2
			l0,19.8C253.2,249,252.7,249.6,252,249.6z"/>
		<g>
			<path class="st1" d="M262.1,251.7c-1.3-1.3-3.2-2.2-5.2-2.2v0l-23.7,0l0,0.1c0,0,0,0,0,0l0-0.1c-2,0-3.9,0.8-5.2,2.2
				c-1.3,1.3-2.2,3.2-2.2,5.2h0l0,8.6l38.5,0l0-8.6C264.3,254.9,263.5,253.1,262.1,251.7z"/>
			<polygon class="st1" points="236.6,249.6 234.5,249.6 234.5,255.2 236.6,255.2 235.6,257.1 245,264.5 			"/>
			<path class="st1" d="M264.3,257l0,8.6l-19.3,0l0-16l11.9,0v0c2,0,3.9,0.8,5.2,2.2C263.5,253.1,264.3,254.9,264.3,257z"/>
			<polygon class="st1" points="253.4,249.6 245,264.5 236.6,249.6 			"/>
			<polygon class="st2" points="253.4,249.6 255.5,249.6 255.5,255.2 253.4,255.2 254.4,257.1 245,264.5 			"/>
		</g>
	</g>
	<polygon class="st27" points="471.3,491.8 477.5,554.2 461,554.2 443.9,495.8 	"/>
	<path class="st27" d="M358.4,476.5c-1.1-4.7-4.2-8.8-6.8-12.8c-0.2-0.3-0.5-0.4-0.7-0.3c-0.6-0.6-1.4-1-2.4-1.1
		c-3.3,0-5.8,4.4-7.6,6.6c-4.4,5.2-9.1,10.1-13.6,15.1c0-0.2-0.1-0.4-0.1-0.6c-0.8-3.7-1.7-7.3-2.6-11c-1.2-5.1-2.3-10.3-3.9-15.4
		c1.7-2.3,3.2-4.7,4.3-7.3c1.2-2.7,2.5-6.9,0.2-9.4c-2.1-2.3-5.1-0.7-6.2,1.7c-0.5,1.2-0.8,2.4-1.1,3.7c-0.2,0-0.4,0-0.6,0
		c-1,0-2,0.5-2.8,1.1c-0.8,0.6-1.6,1.3-2.3,2c-0.7,0.8-1.3,1.6-1.7,2.5c-0.1,0.2,0,0.4,0.2,0.5c-1.7,9.8-1.8,20-1.6,30
		c0.1,4.9,0.3,9.9,1.2,14.7c0.8,4,2.1,8.6,4.8,11.7c5.9,6.6,15.3,2.5,21.3-1.6c3.7-2.5,7.2-5.5,10.4-8.6c3-2.8,5.9-5.8,8.3-9.2
		C357.8,485.3,359.4,481,358.4,476.5z"/>
	<path class="st2" d="M301.2,367.8c-1.9-3.4-4.7-5.7-8.8-4.8c-1.8,0.4-3.4,1.6-4.7,3c-6.2,6.3-8.9,15.6-10.7,23.9
		c-2.6,11.8-2.6,24,0.3,35.7c1.2,4.8,4.6,13.9,11.1,10.1c4.4-2.5,7-8.1,9.1-12.5c5.8-12.6,8-26.5,7.3-40.3
		C304.5,379.3,303.7,372.5,301.2,367.8z M301.7,383.6c0.7,12.5-1.1,25.2-5.9,36.6c-1.7,4-4.3,10.6-8,12.8c-5.6,3.4-8.5-4.9-9.5-9.3
		c-2.6-10.7-2.3-23.3-0.2-34c1.5-7.6,4.5-16.6,9.7-22.2c1.1-1.2,2.4-2.3,4-2.7c3.6-0.9,6,1.2,7.6,4.4
		C301.5,373.4,301.5,380.2,301.7,383.6z"/>
	<path class="st28" d="M315.9,460.1l-7.5-1.7c-0.6-0.1-1-0.8-0.9-1.4l9.4-41.3c0-0.1,0.1-0.1,0.2-0.1l9.5,2.2c0.1,0,0.1,0.1,0.1,0.2
		l-9.4,41.3C317.2,459.8,316.6,460.2,315.9,460.1z"/>
	<g>
		<g>
			<path class="st27" d="M320.9,434.3c-0.8-0.9-1.7-1.7-2.7-2.2c-1.3-0.7-2.9-1-4.4-1.1c-0.7-0.1-1.3-0.1-2,0
				c-2.3,0.2-4.4,1.8-5.7,3.7c-1.3,2-1.8,4.4-1.8,6.7c0,2.9,0.6,5.9,2.4,8.2c0.5,0.7,1.2,1.4,1.8,2c0.1,0.1,0.1,0.1,0.2,0.2
				c0.1-0.1,0.8-1.2,1-1.5c0.4-0.5,1.2-1.6,1.2-1.6c0.2-0.3,0.3-0.6,0.5-0.8c1.1-1.1,2.6-1.7,4.2-1.7c0.5,0,1,0,1.4,0.2
				c0.4,0.1,0.7,0.4,1.1,0.4c0.7,0.1,1.4-0.2,1.7-0.8c0.4-0.6,0.5-1.3,0.4-1.9c0-0.2,0-0.3,0-0.5c0.1-0.2,0.3-0.4,0.4-0.6
				c0.5-0.5,0.8-1.2,0.8-1.9c0-0.2-0.1-0.4,0-0.6c0-0.4,0.3-0.6,0.5-1c0.2-0.5,0.2-1.1,0.1-1.7C321.8,436.5,322,435.5,320.9,434.3z"
				/>
			<g>
				<path class="st27" d="M320.2,443.3c-0.4-0.3-0.9-0.5-1.3-0.7c-0.9-0.4-1.9-0.8-2.9-1c-2-0.5-4-0.7-6-0.4c-0.3,0-0.2,0.4,0,0.4
					c1.9-0.2,4,0,5.8,0.6c0.9,0.3,1.8,0.7,2.6,1.2c0.4,0.2,0.8,0.5,1.1,0.8c0.3,0.2,0.5,0.4,0.8,0.6c0-0.2,0-0.4,0-0.6
					c0-0.2,0-0.3,0-0.5c0-0.1,0.1-0.2,0.1-0.3C320.3,443.4,320.2,443.3,320.2,443.3z"/>
				<path class="st27" d="M321.5,440.2C321.5,440.2,321.5,440.2,321.5,440.2c-0.5-0.4-1-0.7-1.5-1.1c-1-0.6-2-1.1-3.2-1.5
					c-2.2-0.7-4.6-1-6.9-0.7c-0.4,0-0.3,0.6,0.1,0.6c2.3-0.2,4.5,0.1,6.6,0.9c1,0.4,2,0.9,2.9,1.5c0.5,0.3,0.9,0.7,1.3,1
					c0.2,0.1,0.3,0.3,0.5,0.4c0-0.1,0-0.2,0-0.2c0-0.2-0.1-0.4,0-0.6C321.4,440.5,321.5,440.3,321.5,440.2z"/>
				<path class="st27" d="M321.8,436.9c-1.4-1.2-2.9-2-4.6-2.6c-2-0.7-4.1-0.9-6.2-0.4c-0.3,0.1-0.3,0.6,0.1,0.5
					c2-0.3,4-0.1,5.9,0.6c1.7,0.6,3.2,1.7,4.5,3c0.1,0.1,0.3,0.3,0.6,0.6c0-0.2,0-0.3,0-0.5C321.9,437.6,321.9,437.2,321.8,436.9
					C321.9,436.9,321.8,436.9,321.8,436.9z"/>
			</g>
		</g>
	</g>
	<path class="st29" d="M445.6,433.6c-0.1,1.9-0.3,3.8-0.7,5.6c-1.4,6.4-4.3,11.9-7.8,16.3c-0.1,0.1-0.2,0.3-0.3,0.4
		c-1.6,1.9-3.3,3.6-5.1,5c-3,2.4-6.2,4.1-9.6,5.1c-5.6,1.6-11.5,1.1-17.2,0.4c-5.9-0.8-11.8-1.8-17.4-4.5
		c-5.6-2.7-11.7-5.9-15.4-12.6c-3-5.5-4.8-12.6-4.5-19.6c0.1-1.5,0.2-2.9,0.5-4.4c1.2-6.6,5.3-13.4,6.4-20.1
		c0.8-4.5,0.6-9.3-0.6-13.6c-0.7-2.6-1.8-5-2.5-7.6c-3.2-11.4,1.2-25.2,8.6-31.5c7.2-6.1,7.1-5,15-0.7c0.9,0.5,4,0.4,7.2,0.1
		c3.9-0.4,8.1-1.1,9.2-1.5c2.6-0.8,5.4-0.7,8,0.4c9.5,4,10.2,17.6,10.8,27c0.5,7.8,0,16.8,2.7,24.2c2.6,7,7.6,11,10.6,17.8
		c1.3,3,2,6.3,2.2,9.8c-1.7-0.6-3.1-1-4-1.3c-0.3-0.5-0.8-1.1-1.2-1.3c-4.9-1.7-9.6-3.3-14.5-4.7c1.1,2.4,2.6,4.3,4.8,5.6
		c1.7,1,3.3,1.9,5.1,2.6c1.6,0.7,3.2,1.3,4.8,1.7C442.4,432.9,444,433.3,445.6,433.6z"/>
	<path class="st30" d="M370.1,427.9c-5.1,2.5-10.1,5-15.2,7.6c-1.9,1-3.9,1.9-5.5,3.4c-2,1.9-3.3,4.4-4.5,6.8
		c-4.2,8.3-8.5,16.5-13.1,24.6c-1.5,2.8-1.6,6.1-0.1,8.9c5,9.6,17.2,30,25.7,18.4c1.8-3.6,2.9-7.5,3.9-11.4c2-7.4,3.9-14.9,4.2-22.5
		c0.3-6-0.5-12-0.5-18c0-6,0.4-10.8,3.6-16"/>
	<path class="st28" d="M462.8,554.1l-10.3,0l-90.4-0.4c-2,0-3.9-0.3-5.6-0.8c6.1-9.3,6.1-23.3,6.6-28.4c1-10.2-1.6-19.1-3.9-28.3
		c-1.5-5.9-2.8-11.9-3.1-18.4c-0.2-5.2,1.1-10.5,1.9-15.5c1.3-9.1,3.4-18.1,6.2-26.8c0.5-1.6,1.1-3.3,2.1-4.7l1.4-1l8.4-5.8
		c4.2-2,8.7-3.5,13.4-4.4c5-1,10.1-1.3,15.1-1.1c1.2,0.4,2.1,1,2,2.2c-0.4,3.3,1.2,7,2.5,7.4c0.1,0,0.6,0.1,1.3,0.1
		c3.5,0.2,13.4,0.4,21.4,0.3c1.4,0.8,2.8,1.5,4.3,2.1c1.6,0.7,3.2,1.3,4.8,1.7c-3.4,7.7-4,15.3-3.9,23.4c0,0.6,0,1.2,0,1.7
		c0.1,2.7,0.2,5.5,0.4,8.4c0.5,10.4,5.7,23,9.6,34.7c0.9,2.7,1.7,5.4,2.3,7.9L462.8,554.1z"/>
	<path class="st31" d="M417.8,384.3c3.2,0,5.7,2.5,5.8,5.7c0,3.2-2.5,5.7-5.7,5.8c-3.2,0-5.7-2.5-5.8-5.7
		C412.1,386.9,414.7,384.3,417.8,384.3z"/>
	<path class="st32" d="M410.2,428.2c-0.5,1.6-1,3.1-1.3,4.1c-1.3,4.2-2.6,9.3-6.1,12.4c-4.1,3.6-11.9,2.1-15.4-1.8
		c-2.6-2.9-3.3-6.9-3.2-10.6c0-1.2,0.2-9.7,1.5-10c0.8-0.2,3-2.1,3.6-2.6c0,0,0.1-0.1,0.1-0.1c3.7-3.4,2.7-11.9-0.2-15.2
		c-2.2-2.5,20.8-5.9,20.8-5.9c-0.1,5-1.2,10.2-1.6,15.3l-9.3,4.4c0,0,3.3-0.3,5.5,0.3c1.2,0.4,2.1,1,2,2.2c-0.4,3.3,1.2,7,2.5,7.4
		C409,428.1,409.5,428.2,410.2,428.2z"/>
	<path class="st31" d="M380,384.9c3.2,0.1,5.7,2.7,5.6,5.9c-0.1,3.2-2.7,5.7-5.9,5.6c-3.2-0.1-5.7-2.7-5.6-5.9
		C374.3,387.3,376.9,384.8,380,384.9z"/>
	<path class="st32" d="M398.1,356L398.1,356c10.8,0.3,19.3,10.1,19,21.8l-0.5,19.4c-0.3,11.7-9.4,21.1-20.1,20.9v0
		c-10.8-0.3-19.3-10.1-19-21.8l0.5-19.4C378.2,365.2,387.3,355.8,398.1,356z"/>
	<path class="st31" d="M416.5,372.1c0.4,1.9,0.6,3.8,0.6,5.8l-0.5,19.4c-0.3,10.8-8,19.6-17.6,20.8c5.7-1.5-1.5,0.1-1.7,0.1l0,0
		c10.7-0.7,13.4-14.7,13.6-18.9c0.1-4.2,0-0.6,0.3-11c0.3-10.4-5.4-11.7-9.3-11.8c-3.9-0.1-17-0.5-19.5-0.6
		c-2.5-0.1-3.5,2.2-3.5,2.2l-1-0.8l0-0.4c0.2-6.2,2.8-11.8,6.8-15.6c9.7,2.2,26,6,27.1,6.7C412.4,368.4,414.3,370.1,416.5,372.1z"/>
	<path class="st33" d="M462.8,554.1l-10.3,0c-1.9-4.9-4.2-10.6-6.8-17.2c-10.3-25.6-14.9-90.1-14.9-90.1l6.1,10.8
		c0.1,2.7,0.2,5.5,0.4,8.4c0.5,10.4,5.7,23,9.6,34.7c0.9,2.7,1.7,5.4,2.3,7.9L462.8,554.1z"/>
	<path class="st34" d="M412.3,372.5c0,0-14,1.1-21-3.6c-2.6-1.8-5.3-3.6-8.3-4.8c-1.8-0.7-4.7-1.8-6.2-0.1c-1,1.1-0.7,2.5-0.1,3.8
		c0.9,1.9,1.5,3.8,1.7,5.9c0.7,6.9-0.2,13.9-1.2,20.8c-0.1-9.4-4-17.5-6-26.4c-0.7-3.4-1.1-6.9,0.1-10.2c2.7-7.9,13.5-12,20.8-8
		c3.3,1.8,6.9,3,10.7,3.3c2.1,0.1,4.3,0,6.4,0.1c3.8,0.3,7,2.2,8.7,5.6c0.7,1.4,0.6,3.1,1.1,4.6c1.3,3.4,4.2,6,4.3,9.8
		c0.1,3-0.8,5.9-2,8.7c-0.8,1.8-1.9,3.5-3.5,4.6c-0.7,0.5-1,1.4-1,2.2l-0.2,9.9C409.8,398.3,410.2,380.5,412.3,372.5z"/>
	<path class="st30" d="M470.6,496.7l-23.9,3.9l0,0c-0.6,0.1-1.2-0.2-1.4-0.8c-1.7-4.9-9.4-26.8-12.3-33.9c-0.5-1.2-1-3-1.3-5.1
		c-1.6-9-1.5-24.1,4.1-30.1c0,0,0,0,0.1-0.1c1.3-1.4,3-2.3,5-2.5c0,0,0.3,0.1,0.8,0.2c0.8,0.2,2.2,0.7,4,1.3
		c2.1,0.7,4.7,1.7,7.4,2.8c3.9,1.7,7.9,3.8,10.4,6c6.3,5.7,8.6,19.3,9.9,23.5c0.6,2.1,3.8,10.4,6.8,18
		C483,487.3,478.4,495.5,470.6,496.7z"/>
	<path class="st28" d="M441.7,428.4c-0.5-0.2-0.8-0.2-0.8-0.2c-2,0.2-3.7,1.1-5,2.5c-1.7-0.7-3.4-1.6-5.1-2.6
		c-2.1-1.3-3.7-3.2-4.8-5.6c4.8,1.4,9.6,3,14.5,4.7C440.9,427.3,441.4,427.9,441.7,428.4z"/>
	<path class="st33" d="M441.7,428.4c-0.5-0.2-0.8-0.2-0.8-0.2c-2,0.2-3.7,1.1-5,2.5c-1.7-0.7-3.4-1.6-5.1-2.6
		c-2.1-1.3-3.7-3.2-4.8-5.6c4.8,1.4,9.6,3,14.5,4.7C440.9,427.3,441.4,427.9,441.7,428.4z"/>
	<path class="st35" d="M445.6,429.7c-1.7-0.6-3.1-1-4-1.3c-0.3-0.5-0.8-1.1-1.2-1.3c0,0-0.1,0-0.1-0.1c-10.2-3.5-17-13-17.2-23.8
		c-0.1-14.1,1.2-29.5-6.1-35.1c-6.5-5-11.6-11.2-15-16.2c3.9-0.4,8.1-1.1,9.2-1.5c2.6-0.8,5.4-0.7,8,0.4c9.5,4,10.2,17.6,10.8,27
		c0.5,7.8,0,16.8,2.7,24.2c2.6,7,7.6,11,10.6,17.8C444.7,422.8,445.4,426.2,445.6,429.7z"/>
	<path class="st36" d="M375.4,371l3.4,3.6c0,0,1.9-6.5,16-4.1c14.1,2.5-12.7-13.6-15.8-12C375.9,360.1,373.1,364.9,375.4,371z"/>
	<path class="st37" d="M301.2,367.8c0,0,4.3,9.5,16.4,14.2c12.1,4.7,12.4,5.1,19.8,5.2c7.4,0.2,13.2,2.1,16.3,10.1
		c3.3,8.3,1.7,17.7-4.3,22.6c-5.9,4.9-14.1,3.8-16.2,3.4c-2.1-0.4-6.7-1.7-15.8-0.2c-9.1,1.5-18.5,5.8-22,8.3
		c-3.5,2.5-7.1,4.5-7.1,4.5s-4.3-6.7-4.1-21.1c0.2-14.3,4.5-33.1,5.4-34.7C290.5,378.4,296.4,363.2,301.2,367.8z"/>
	<path class="st28" d="M301.2,367.8c-1.9-3.4-4.7-5.7-8.8-4.8c-1.8,0.4-3.4,1.6-4.7,3c-6.2,6.3-8.9,15.6-10.7,23.9
		c-2.6,11.8-2.6,24,0.3,35.7c1.2,4.8,4.6,13.9,11.1,10.1c4.4-2.5,7-8.1,9.1-12.5c5.8-12.6,8-26.5,7.3-40.3
		C304.5,379.3,303.7,372.5,301.2,367.8z"/>
	<path class="st28" d="M338.8,387.3c-0.5,0-0.9,0-1.4-0.1c-2.7-0.1-4.4-0.2-6.1-0.5c0.8,1.7,1.5,3.4,2,5.2c1,3.6,0.9,7.7,0.6,11.4
		c-0.3,3.5-1.1,7-2.2,10.3c-1,2.9-2.2,5.7-3.9,8.2c-0.1,0.2-0.3,0.4-0.4,0.6c2.9,0.2,4.8,0.7,5.9,0.9c0.3,0.1,0.8,0.1,1.3,0.2
		c0.3-0.4,0.6-0.8,0.9-1.1c1.2-1.6,2.2-3.3,3.1-5.1c2.4-5,3.7-10.8,3.9-16.3C342.6,396.1,341.7,391.1,338.8,387.3z"/>
	<path class="st37" d="M299.8,414.9c-2.7-3.6-8.6-7.2-12.4-9.5c-0.2-0.1-0.4-0.2-0.4-0.4c0-0.2,0-0.4,0.1-0.5
		c1.8-4.3,3-9.2,2.1-13.8c4.6,0.5,10.4-0.3,14.5-2c-0.2,2.2-0.4,4.3-0.6,6.5c-0.4,4.2-0.8,8.4-2,12.4c-0.7,2.1-1.6,4.2-1.4,6.4"/>
	<path class="st2" d="M291.8,392.3c-0.7-1.4-2.3-2.3-3.8-1.8c-0.7,0.3-1.2,0.8-1.7,1.3c-1.8,2.3-2.4,5.6-2.2,8.4
		c0.2,2,0.6,4.9,3.1,5c2.5,0.1,4-3,4.7-5c0.8-2.4,0.9-5.1,0.1-7.5C291.9,392.6,291.8,392.5,291.8,392.3z"/>
	<path class="st33" d="M391.1,501.3H380c-3.8,0-7.4-1.3-10.3-3.7l-5.9-4.9l7.7,4.3c2.3,1.3,4.8,2.1,7.3,2.5L391.1,501.3z"/>
	<path class="st31" d="M410.2,428.2c-0.7,0-1.2-0.1-1.3-0.1c-1.2-0.4-2.9-4.1-2.5-7.4c0.1-1.2-0.8-1.8-2-2.2c1.3,0.1,2.7,0.2,4,0.3
		c0.3,0.6,0.9,1.1,2,1.8C411.5,422.4,411,425.5,410.2,428.2z"/>
	<path class="st38" d="M431.6,428.6c-8,0-17.9-0.1-21.4-0.3c0.8-2.7,1.3-5.8,0.2-7.6c-1.1-0.7-1.7-1.2-2-1.8c0.2,0,0.3,0,0.5,0.1
		c5.9,0.7,11.5,2,17.1,3.6c1.1,2.4,2.6,4.3,4.8,5.6C431.1,428.3,431.3,428.4,431.6,428.6z"/>
	<path class="st39" d="M431.6,428.6c-8,0-17.9-0.1-21.4-0.3c0.8-2.7,1.3-5.8,0.2-7.6c-1.1-0.7-1.7-1.2-2-1.8c0.2,0,0.3,0,0.5,0.1
		c5.9,0.7,11.5,2,17.1,3.6c1.1,2.4,2.6,4.3,4.8,5.6C431.1,428.3,431.3,428.4,431.6,428.6z"/>
	<path class="st31" d="M408.4,418.8c-1.3-0.2-2.7-0.3-4-0.3c-2.2-0.6-5.5-0.3-5.5-0.3l9.3-4.4c-0.1,1.3-0.1,2.7-0.1,4
		C408.2,418.2,408.3,418.5,408.4,418.8z"/>
	<path class="st30" d="M453,432.5c-6.3,3.2-16.4-1.1-16.4-1.1c-0.4-0.2-0.6-0.5-0.8-0.6c0,0,0,0,0.1-0.1c1.3-1.4,3-2.3,5-2.5
		c0,0,0.3,0.1,0.8,0.2c0.8,0.2,2.2,0.7,4,1.3C447.7,430.4,450.4,431.4,453,432.5z"/>
	<path class="st33" d="M453,432.5c-6.3,3.2-16.4-1.1-16.4-1.1c-0.4-0.2-0.6-0.5-0.8-0.6c0,0,0,0,0.1-0.1c1.3-1.4,3-2.3,5-2.5
		c0,0,0.3,0.1,0.8,0.2c0.8,0.2,2.2,0.7,4,1.3C447.7,430.4,450.4,431.4,453,432.5z"/>
	<path class="st2" d="M351.6,507.3c-1.2-0.5-2.3,0-3.1,1c-1.8,2.4-3.1,5.4-4.5,8c-1.8,3.4,3.5,6.3,5.1,2.9c1.4-2.9,3-5.9,4-9.1
		C353.4,509,352.7,507.7,351.6,507.3z"/>
	<path class="st0" d="M312.3,521.6c-3.2-6.1-2.9-11.9-3.9-18.5c-0.3-2.3-3.9-2-4.4,0.1c-1.7,6.8,1.9,14.5,5.9,19.9
		C311,524.5,313.2,523.2,312.3,521.6z"/>
	<g>
		<path class="st40" d="M189.2,547.5c-3.4-3.9-5.1-9.9-9.8-12c-1.9-0.9-4.6,1-5,3.2c-0.8,5.5,3.1,10.6,4.4,15.8
			c1.1,4.4,5.9,6.2,9.3,3.9C191.7,556.1,192,550.7,189.2,547.5z"/>
		<path class="st1" d="M278.5,579.5c-0.3,1.3-0.7,2.4-1.2,3.5c-0.1,0.1-0.1,0.3-0.2,0.4c-3.8,7.4-12.6,9.4-16.3,10.4
			c-5,1.3-66.1,12.6-87.9-4.6c-21.8-17.2,11.7-73.2,32.2-89.2c0,0-14.7-20.5-9.6-30.1c5.2-3.2,14.9-4.1,25.1-3.7
			c1.7,0.1,3.4,0.2,5.1,0.3c0.6,0,1.2,0.1,1.8,0.2c11.6,1.2,22.7,3.9,27.5,6.9c6.3,5.9-12.6,26.4-12.6,26.4s33.5,37.2,36.4,72.8
			C279,575.4,278.9,577.6,278.5,579.5z"/>
		<path class="st3" d="M278.5,579.5c-0.3,1.3-0.7,2.4-1.2,3.5c-0.1,0.1-0.1,0.3-0.2,0.4c-3.8,7.4-12.6,9.4-16.3,10.4
			c-5,1.3-66.1,12.6-87.9-4.6c-21.8-17.2,11.7-73.2,32.2-89.2c0,0-14.7-20.5-9.6-30.1c5.2-3.2,14.9-4.1,25.1-3.7
			c1.7,0.1,3.4,0.2,5.1,0.3c-2.1,3.8-6.4,12.4-5.7,17.5c0.9,6.8,7.7,21.6,7.1,22.9c-0.6,1.2-22.6,46-14.2,59.9
			C220.9,580.3,258.5,586.5,278.5,579.5z"/>
		<path class="st29" d="M277.3,583.1c-0.1,0.1-0.1,0.3-0.2,0.4c-3.8,7.4-12.6,9.4-16.3,10.4c-5,1.3-66.1,12.6-87.9-4.6
			c-21.8-17.2,11.7-73.2,32.2-89.2c0,0-14.7-20.5-9.6-30.1c5.2-3.2,14.9-4.1,25.1-3.7c-4,2.8-10,7.5-10.2,11
			c-0.3,5.3,6.5,25.3,6.5,25.3s-22.9,33.7-24.7,55.6c-1.9,21.9,9,28.7,26.9,30C236.3,589.4,256.2,592,277.3,583.1z"/>
		<path class="st35" d="M236.7,549.2c-2.5-2.7-2.9-3.4-8.2-5.3v-9.8c1.7,1.9,1.5,4.1,1.5,4.1l8.1-1.4c0,0-1-8-9.6-11v-5.2
			c0,0-3.7-0.2-3.9,0c-0.1,0.1-0.1,1.7-0.1,4.3c-1.4-0.2-2.6-0.2-3.8-0.1v-4.2c0,0-3.7-0.2-3.9,0c-0.1,0.1-0.1,1.9-0.1,4.9
			c-4.7,1.5-7.8,4.8-9.3,7.4c-2.3,4.2-0.9,9.3,4.1,12.7c2,1.4,3.9,2.3,5.6,2.9c0.1,4.4,0.2,8.8,0.3,12.7c-2.2-1.8-3.9-4.4-5-7.4
			c-1.7,0.5-7.1,3.7-7.1,3.7s2.6,10.9,12.1,13.2c0.1,0,0.2,0,0.3,0.1c0.1,3.4,0.1,5.4,0.1,5.4h3v-4.8c1.5,0.2,3.1,0.3,4.7,0.2
			c0.1,2.9,0.1,4.7,0.1,4.7h3v-5.2c1.8-0.5,3.6-1.3,5.3-2.7C239.2,564.3,242.3,555.4,236.7,549.2z M223.6,531.7
			c0.4,0.1,0.7,0.1,1.1,0.2c0,3.2,0.1,6.9,0.2,10.8c-1.4-0.4-2.8-0.8-4.1-1.2v-10C221.7,531.5,222.6,531.5,223.6,531.7z
			 M214.5,536.4c0.4-1.6,1.2-2.7,2.3-3.5c0,2.3,0.1,4.8,0.1,7.4C215.1,539.3,214.1,538.2,214.5,536.4z M220.7,563.2v-13.6
			c1.5,0.4,2.9,0.7,4.3,1.2c0.1,4.5,0.2,9,0.3,12.9C223.6,563.9,222.1,563.7,220.7,563.2z M228.5,562.5V553
			C231.7,556.2,231.5,560.4,228.5,562.5z"/>
		<path class="st2" d="M273.1,560.5c-1-8-5.6-16.4-9.7-23.3c-2.3-3.8-4.8-7.5-7.5-11c-2.8-3.7-6.7-7.2-8.8-11.3
			c-2.2-4.1-8.6,1.1-4.1,4.3c6.4,4.5,11.1,14.8,14.6,21.6c3.6,6.9,5.7,14.8,9.5,21.5C268.6,564.9,273.5,563.8,273.1,560.5z"/>
		<path class="st0" d="M188,583.8c-7.5-5.9-13.4-15.2-8.8-24.8c1.7-3.6-3.2-6.3-5.4-3c-4.1,6.1-6,13-3.4,20.1
			c2.4,6.8,7.6,11.7,14.7,12.9C187.8,589.5,190.6,585.9,188,583.8z"/>
		<g>
			<path class="st30" d="M168.8,539.7l7.8,6.3c0,0,2.9,7.5-7,26.1c-10.4,19.5-16.5,17.8-16.5,17.8l-8.3-3.5L168.8,539.7z"/>
			<path class="st37" d="M143.4,584.3c-1.5-6.3,5.1-21.2,6-23.2c7-15,12.9-22.5,17.9-21.8c6.2,0.9,1.8,14.5,0.8,17.8
				c-2.7,9.1-7.6,17.8-13.6,25.1c-1.5,1.9-3.3,3.8-5.6,4.5C145.6,587.8,144,586.6,143.4,584.3z"/>
			<path class="st30" d="M166.1,545.3c-1.1-3-6.2,0.5-12.8,13.2c-6.6,12.7-7.7,21.3-5.7,23.3C150.2,584.4,168.9,553,166.1,545.3z"/>
		</g>
		<g>
			<path class="st30" d="M321,583.9l-1.8,7.6c0,0-4.3,4.6-20.9,3.9c-17.4-0.8-18.3-5.6-18.3-5.6l-0.3-7.1L321,583.9z"/>
			<path class="st37" d="M280.8,581.1c4-3.2,16.7-3.6,18.5-3.6c13-0.1,20.3,1.5,21.5,5.3c1.5,4.7-9.7,6.2-12.4,6.6
				c-7.4,1.2-15.2,0.6-22.4-1.1c-1.9-0.4-3.8-1-5.1-2.5C279,583.8,279.3,582.3,280.8,581.1z"/>
			<path class="st30" d="M316.1,583.8c1.8-1.8-2.5-4.2-13.7-4.6c-11.3-0.3-17.7,1.8-18.4,3.9C283,585.9,311.6,588.5,316.1,583.8z"/>
		</g>
		<g>
			<path class="st30" d="M326.4,576l-1.8,7.6c0,0-4.3,4.6-20.9,3.9c-17.4-0.8-18.3-5.6-18.3-5.6l-0.3-7.1L326.4,576z"/>
			<path class="st37" d="M286.1,573.2c4-3.2,16.7-3.6,18.5-3.6c13-0.1,20.3,1.5,21.5,5.3c1.5,4.7-9.7,6.2-12.4,6.6
				c-7.4,1.2-15.2,0.6-22.4-1.1c-1.9-0.4-3.8-1-5.1-2.5C284.4,576,284.7,574.4,286.1,573.2z"/>
			<path class="st30" d="M321.5,576c1.8-1.8-2.5-4.2-13.7-4.6c-11.3-0.3-17.7,1.8-18.4,3.9C288.3,578,316.9,580.6,321.5,576z"/>
		</g>
		<g>
			<path class="st30" d="M327.6,568.6l-1.8,7.6c0,0-4.3,4.6-20.9,3.9c-17.4-0.8-18.3-5.6-18.3-5.6l-0.3-7.1L327.6,568.6z"/>
			<path class="st37" d="M287.4,565.8c4-3.2,16.7-3.6,18.5-3.6c13-0.1,20.3,1.5,21.5,5.3c1.5,4.7-9.7,6.2-12.4,6.6
				c-7.4,1.2-15.2,0.6-22.4-1.1c-1.9-0.4-3.8-1-5.1-2.5C285.7,568.5,285.9,567,287.4,565.8z"/>
			<path class="st30" d="M322.7,568.6c1.8-1.8-2.5-4.2-13.7-4.6c-11.3-0.3-17.7,1.8-18.4,3.9C289.6,570.6,318.2,573.2,322.7,568.6z"
				/>
		</g>
		<g>
			<path class="st30" d="M319.8,561.2l-1.8,7.6c0,0-4.3,4.6-20.9,3.9c-17.4-0.8-18.3-5.6-18.3-5.6l-0.3-7.1L319.8,561.2z"/>
			<path class="st37" d="M279.5,558.4c4-3.2,16.7-3.6,18.5-3.6c13-0.1,20.3,1.5,21.5,5.3c1.5,4.7-9.7,6.2-12.4,6.6
				c-7.4,1.2-15.2,0.6-22.4-1.1c-1.9-0.4-3.8-1-5.1-2.5C277.8,561.1,278.1,559.5,279.5,558.4z"/>
			<path class="st30" d="M314.9,561.1c1.8-1.8-2.5-4.2-13.7-4.6c-11.3-0.3-17.7,1.8-18.4,3.9C281.7,563.2,310.3,565.8,314.9,561.1z"
				/>
		</g>
		<g>
			<path class="st30" d="M327.6,554.1l-1.8,7.6c0,0-4.3,4.6-20.9,3.9c-17.4-0.8-18.3-5.6-18.3-5.6l-0.3-7.1L327.6,554.1z"/>
			<path class="st37" d="M287.4,551.3c4-3.2,16.7-3.6,18.5-3.6c13-0.1,20.3,1.5,21.5,5.3c1.5,4.7-9.7,6.2-12.4,6.6
				c-7.4,1.2-15.2,0.6-22.4-1.1c-1.9-0.4-3.8-1-5.1-2.5C285.7,554.1,285.9,552.5,287.4,551.3z"/>
			<path class="st30" d="M322.7,554.1c1.8-1.8-2.5-4.2-13.7-4.6c-11.3-0.3-17.7,1.8-18.4,3.9C289.6,556.1,318.2,558.7,322.7,554.1z"
				/>
		</g>
		<g>
			<path class="st30" d="M327.6,546.7l-1.8,7.6c0,0-4.3,4.6-20.9,3.9c-17.4-0.8-18.3-5.6-18.3-5.6l-0.3-7.1L327.6,546.7z"/>
			<path class="st37" d="M287.4,543.9c4-3.2,16.7-3.6,18.5-3.6c13-0.1,20.3,1.5,21.5,5.3c1.5,4.7-9.7,6.2-12.4,6.6
				c-7.4,1.2-15.2,0.6-22.4-1.1c-1.9-0.4-3.8-1-5.1-2.5C285.7,546.6,285.9,545.1,287.4,543.9z"/>
			<path class="st30" d="M322.7,546.6c1.8-1.8-2.5-4.2-13.7-4.6c-11.3-0.3-17.7,1.8-18.4,3.9C289.6,548.7,318.2,551.3,322.7,546.6z"
				/>
		</g>
		<g>
			<path class="st30" d="M327.6,539.2l-1.8,7.6c0,0-4.3,4.6-20.9,3.9c-17.4-0.8-18.3-5.6-18.3-5.6l-0.3-7.1L327.6,539.2z"/>
			<path class="st37" d="M287.4,536.4c4-3.2,16.7-3.6,18.5-3.6c13-0.1,20.3,1.5,21.5,5.3c1.5,4.7-9.7,6.2-12.4,6.6
				c-7.4,1.2-15.2,0.6-22.4-1.1c-1.9-0.4-3.8-1-5.1-2.5C285.7,539.2,285.9,537.6,287.4,536.4z"/>
			<path class="st30" d="M322.7,539.2c1.8-1.8-2.5-4.2-13.7-4.6c-11.3-0.3-17.7,1.8-18.4,3.9C289.6,541.2,318.2,543.8,322.7,539.2z"
				/>
		</g>
		<g>
			<path class="st30" d="M319.8,531.8l-1.8,7.6c0,0-4.3,4.6-20.9,3.9c-17.4-0.8-18.3-5.6-18.3-5.6l-0.3-7.1L319.8,531.8z"/>
			<path class="st37" d="M279.5,529c4-3.2,16.7-3.6,18.5-3.6c13-0.1,20.3,1.5,21.5,5.3c1.5,4.7-9.7,6.2-12.4,6.6
				c-7.4,1.2-15.2,0.6-22.4-1.1c-1.9-0.4-3.8-1-5.1-2.5C277.8,531.7,278.1,530.2,279.5,529z"/>
			<path class="st30" d="M314.9,531.8c1.8-1.8-2.5-4.2-13.7-4.6c-11.3-0.3-17.7,1.8-18.4,3.9C281.7,533.8,310.3,536.4,314.9,531.8z"
				/>
		</g>
		<g>
			<path class="st30" d="M326.4,524l-1.8,7.6c0,0-4.3,4.6-20.9,3.9c-17.4-0.8-18.3-5.6-18.3-5.6l-0.3-7.1L326.4,524z"/>
			<path class="st37" d="M286.1,521.2c4-3.2,16.7-3.6,18.5-3.6c13-0.1,20.3,1.5,21.5,5.3c1.5,4.7-9.7,6.2-12.4,6.6
				c-7.4,1.2-15.2,0.6-22.4-1.1c-1.9-0.4-3.8-1-5.1-2.5C284.4,523.9,284.7,522.3,286.1,521.2z"/>
			<path class="st30" d="M321.5,523.9c1.8-1.8-2.5-4.2-13.7-4.6c-11.3-0.3-17.7,1.8-18.4,3.9C288.3,525.9,316.9,528.5,321.5,523.9z"
				/>
		</g>
		<g>
			<path class="st30" d="M325.2,516.1l-1.8,7.6c0,0-4.3,4.6-20.9,3.9c-17.4-0.8-18.3-5.6-18.3-5.6l-0.3-7.1L325.2,516.1z"/>
			<path class="st37" d="M284.9,513.3c4-3.2,16.7-3.6,18.5-3.6c13-0.1,20.3,1.5,21.5,5.3c1.5,4.7-9.7,6.2-12.4,6.6
				c-7.4,1.2-15.2,0.6-22.4-1.1c-1.9-0.4-3.8-1-5.1-2.5C283.2,516,283.5,514.5,284.9,513.3z"/>
			<path class="st30" d="M320.3,516c1.8-1.8-2.5-4.2-13.7-4.6c-11.3-0.3-17.7,1.8-18.4,3.9C287.1,518.1,315.7,520.7,320.3,516z"/>
		</g>
		<g>
			<path class="st30" d="M323.9,508.2l-1.8,7.6c0,0-4.3,4.6-20.9,3.9c-17.4-0.8-18.3-5.6-18.3-5.6l-0.3-7.1L323.9,508.2z"/>
			<path class="st37" d="M283.7,505.4c4-3.2,16.7-3.6,18.5-3.6c13-0.1,20.3,1.5,21.5,5.3c1.5,4.7-9.7,6.2-12.4,6.6
				c-7.4,1.2-15.2,0.6-22.4-1.1c-1.9-0.4-3.8-1-5.1-2.5C281.9,508.2,282.2,506.6,283.7,505.4z"/>
			<path class="st30" d="M319,508.2c1.8-1.8-2.5-4.2-13.7-4.6c-11.3-0.3-17.7,1.8-18.4,3.9C285.9,510.2,314.5,512.8,319,508.2z"/>
		</g>
		<g>
			<g>
				<path class="st30" d="M379.3,586.8l-1.8,7.6c0,0-4.3,4.6-20.9,3.9c-17.4-0.8-18.3-5.6-18.3-5.6l-0.3-7.1L379.3,586.8z"/>
				<path class="st37" d="M339,584c4-3.2,16.7-3.6,18.5-3.6c13-0.1,20.3,1.5,21.5,5.3c1.5,4.7-9.7,6.2-12.4,6.6
					c-7.4,1.2-15.2,0.6-22.4-1.1c-1.9-0.4-3.8-1-5.1-2.5C337.3,586.7,337.6,585.2,339,584z"/>
				<path class="st30" d="M374.4,586.7c1.8-1.8-2.5-4.2-13.7-4.6c-11.3-0.3-17.7,1.8-18.4,3.9C341.3,588.8,369.9,591.4,374.4,586.7z
					"/>
			</g>
			<g>
				<path class="st30" d="M376.8,578.1l-1.8,7.6c0,0-4.3,4.6-20.9,3.9c-17.4-0.8-18.3-5.6-18.3-5.6l-0.3-7.1L376.8,578.1z"/>
				<path class="st37" d="M336.6,575.3c4-3.2,16.7-3.6,18.5-3.6c13-0.1,20.3,1.5,21.5,5.3c1.5,4.7-9.7,6.2-12.4,6.6
					c-7.4,1.2-15.2,0.6-22.4-1.1c-1.9-0.4-3.8-1-5.1-2.5C334.9,578,335.1,576.5,336.6,575.3z"/>
				<path class="st30" d="M371.9,578.1c1.8-1.8-2.5-4.2-13.7-4.6c-11.3-0.3-17.7,1.8-18.4,3.9C338.8,580.1,367.4,582.7,371.9,578.1z
					"/>
			</g>
			<g>
				<path class="st30" d="M374.4,569.4l-1.8,7.6c0,0-4.3,4.6-20.9,3.9c-17.4-0.8-18.3-5.6-18.3-5.6l-0.3-7.1L374.4,569.4z"/>
				<path class="st37" d="M334.1,566.6c4-3.2,16.7-3.6,18.5-3.6c13-0.1,20.3,1.5,21.5,5.3c1.5,4.7-9.7,6.2-12.4,6.6
					c-7.4,1.2-15.2,0.6-22.4-1.1c-1.9-0.4-3.8-1-5.1-2.5C332.4,569.4,332.7,567.8,334.1,566.6z"/>
				<path class="st30" d="M369.5,569.4c1.8-1.8-2.5-4.2-13.7-4.6c-11.3-0.3-17.7,1.8-18.4,3.9C336.3,571.4,364.9,574,369.5,569.4z"
					/>
			</g>
			<g>
				<path class="st30" d="M371.9,560.7l-1.8,7.6c0,0-4.3,4.6-20.9,3.9c-17.4-0.8-18.3-5.6-18.3-5.6l-0.3-7.1L371.9,560.7z"/>
				<path class="st37" d="M331.6,557.9c4-3.2,16.7-3.6,18.5-3.6c13-0.1,20.3,1.5,21.5,5.3c1.5,4.7-9.7,6.2-12.4,6.6
					c-7.4,1.2-15.2,0.6-22.4-1.1c-1.9-0.4-3.8-1-5.1-2.5C329.9,560.7,330.2,559.1,331.6,557.9z"/>
				<path class="st30" d="M367,560.7c1.8-1.8-2.5-4.2-13.7-4.6c-11.3-0.3-17.7,1.8-18.4,3.9C333.8,562.7,362.4,565.3,367,560.7z"/>
			</g>
		</g>
		<g>
			<path class="st30" d="M423.4,579.2l-1.6,6.8c0,0-3.9,4.2-18.7,3.5c-15.5-0.7-16.3-5-16.3-5l-0.3-6.3L423.4,579.2z"/>
			<path class="st37" d="M387.3,576.7c3.5-2.9,14.9-3.2,16.5-3.2c11.6-0.1,18.1,1.3,19.2,4.7c1.4,4.2-8.7,5.6-11.1,5.9
				c-6.6,1-13.6,0.6-20.1-1c-1.7-0.4-3.4-0.9-4.6-2.2C385.8,579.2,386.1,577.8,387.3,576.7z"/>
			<path class="st30" d="M419,579.2c1.6-1.6-2.2-3.8-12.3-4.1c-10.1-0.3-15.8,1.6-16.5,3.5C389.3,581,414.9,583.3,419,579.2z"/>
		</g>
		<g>
			<path class="st30" d="M421.1,571.5l-1.6,6.8c0,0-3.9,4.2-18.7,3.5c-15.5-0.7-16.3-5-16.3-5l-0.3-6.3L421.1,571.5z"/>
			<path class="st37" d="M385.1,569c3.5-2.9,14.9-3.2,16.5-3.2c11.6-0.1,18.1,1.3,19.2,4.7c1.4,4.2-8.7,5.6-11.1,5.9
				c-6.6,1-13.6,0.6-20.1-1c-1.7-0.4-3.4-0.9-4.6-2.2C383.6,571.4,383.8,570,385.1,569z"/>
			<path class="st30" d="M416.7,571.4c1.6-1.6-2.2-3.8-12.3-4.1c-10.1-0.3-15.8,1.6-16.5,3.5C387.1,573.2,412.7,575.6,416.7,571.4z"
				/>
		</g>
		<g>
			<path class="st30" d="M418.9,563.7l-1.6,6.8c0,0-3.9,4.2-18.7,3.5c-15.5-0.7-16.3-5-16.3-5l-0.3-6.3L418.9,563.7z"/>
			<path class="st37" d="M382.9,561.2c3.5-2.9,14.9-3.2,16.5-3.2c11.6-0.1,18.1,1.3,19.2,4.7c1.4,4.2-8.7,5.6-11.1,5.9
				c-6.6,1-13.6,0.6-20.1-1c-1.7-0.4-3.4-0.9-4.6-2.2C381.4,563.6,381.6,562.2,382.9,561.2z"/>
			<path class="st30" d="M414.5,563.7c1.6-1.6-2.2-3.8-12.3-4.1c-10.1-0.3-15.8,1.6-16.5,3.5C384.9,565.5,410.4,567.8,414.5,563.7z"
				/>
		</g>
		<g>
			<path class="st30" d="M425,555.9l-1.6,6.8c0,0-3.9,4.2-18.7,3.5c-15.5-0.7-16.3-5-16.3-5l-0.3-6.3L425,555.9z"/>
			<path class="st37" d="M388.9,553.4c3.5-2.9,14.9-3.2,16.5-3.2c11.6-0.1,18.1,1.3,19.2,4.7c1.4,4.2-8.7,5.6-11.1,5.9
				c-6.6,1-13.6,0.6-20.1-1c-1.7-0.4-3.4-0.9-4.6-2.2C387.4,555.9,387.7,554.5,388.9,553.4z"/>
			<path class="st30" d="M420.6,555.9c1.6-1.6-2.2-3.8-12.3-4.1c-10.1-0.3-15.8,1.6-16.5,3.5C390.9,557.7,416.5,560,420.6,555.9z"/>
		</g>
		<g>
			<path class="st30" d="M371.9,552.1l-1.8,7.6c0,0-4.3,4.6-20.9,3.9c-17.4-0.8-18.3-5.6-18.3-5.6l-0.3-7.1L371.9,552.1z"/>
			<path class="st37" d="M331.6,549.3c4-3.2,16.7-3.6,18.5-3.6c13-0.1,20.3,1.5,21.5,5.3c1.5,4.7-9.7,6.2-12.4,6.6
				c-7.4,1.2-15.2,0.6-22.4-1.1c-1.9-0.4-3.8-1-5.1-2.5C329.9,552,330.2,550.4,331.6,549.3z"/>
			<path class="st30" d="M367,552c1.8-1.8-2.5-4.2-13.7-4.6c-11.3-0.3-17.7,1.8-18.4,3.9C333.8,554.1,362.4,556.7,367,552z"/>
		</g>
		<g>
			<path class="st30" d="M373.5,543.4l-1.8,7.6c0,0-4.3,4.6-20.9,3.9c-17.4-0.8-18.3-5.6-18.3-5.6l-0.3-7.1L373.5,543.4z"/>
			<path class="st37" d="M333.3,540.6c4-3.2,16.7-3.6,18.5-3.6c13-0.1,20.3,1.5,21.5,5.3c1.5,4.7-9.7,6.2-12.4,6.6
				c-7.4,1.2-15.2,0.6-22.4-1.1c-1.9-0.4-3.8-1-5.1-2.5C331.6,543.3,331.8,541.8,333.3,540.6z"/>
			<path class="st30" d="M368.6,543.3c1.8-1.8-2.5-4.2-13.7-4.6c-11.3-0.3-17.7,1.8-18.4,3.9C335.5,545.4,364.1,548,368.6,543.3z"/>
		</g>
		<g>
			<path class="st30" d="M373.5,535.1l-1.8,7.6c0,0-4.3,4.6-20.9,3.9c-17.4-0.8-18.3-5.6-18.3-5.6l-0.3-7.1L373.5,535.1z"/>
			<path class="st37" d="M333.3,532.3c4-3.2,16.7-3.6,18.5-3.6c13-0.1,20.3,1.5,21.5,5.3c1.5,4.7-9.7,6.2-12.4,6.6
				c-7.4,1.2-15.2,0.6-22.4-1.1c-1.9-0.4-3.8-1-5.1-2.5C331.6,535,331.8,533.5,333.3,532.3z"/>
			<path class="st30" d="M368.6,535.1c1.8-1.8-2.5-4.2-13.7-4.6c-11.3-0.3-17.7,1.8-18.4,3.9C335.5,537.1,364.1,539.7,368.6,535.1z"
				/>
		</g>
	</g>
	<g class="st41">
		<path class="st2" d="M189.2,547.5c-3.4-3.9-5.1-9.9-9.8-12c-1.9-0.9-4.6,1-5,3.2c-0.8,5.5,3.1,10.6,4.4,15.8
			c1.1,4.4,5.9,6.2,9.3,3.9C191.7,556.1,192,550.7,189.2,547.5z"/>
		<path class="st2" d="M278.5,579.5c-0.3,1.3-0.7,2.4-1.2,3.5c-0.1,0.1-0.1,0.3-0.2,0.4c-3.8,7.4-12.6,9.4-16.3,10.4
			c-5,1.3-66.1,12.6-87.9-4.6c-21.8-17.2,11.7-73.2,32.2-89.2c0,0-14.7-20.5-9.6-30.1c5.2-3.2,14.9-4.1,25.1-3.7
			c1.7,0.1,3.4,0.2,5.1,0.3c0.6,0,1.2,0.1,1.8,0.2c11.6,1.2,22.7,3.9,27.5,6.9c6.3,5.9-12.6,26.4-12.6,26.4s33.5,37.2,36.4,72.8
			C279,575.4,278.9,577.6,278.5,579.5z"/>
		<path class="st2" d="M278.5,579.5c-0.3,1.3-0.7,2.4-1.2,3.5c-0.1,0.1-0.1,0.3-0.2,0.4c-3.8,7.4-12.6,9.4-16.3,10.4
			c-5,1.3-66.1,12.6-87.9-4.6c-21.8-17.2,11.7-73.2,32.2-89.2c0,0-14.7-20.5-9.6-30.1c5.2-3.2,14.9-4.1,25.1-3.7
			c1.7,0.1,3.4,0.2,5.1,0.3c-2.1,3.8-6.4,12.4-5.7,17.5c0.9,6.8,7.7,21.6,7.1,22.9c-0.6,1.2-22.6,46-14.2,59.9
			C220.9,580.3,258.5,586.5,278.5,579.5z"/>
		<path class="st2" d="M277.3,583.1c-0.1,0.1-0.1,0.3-0.2,0.4c-3.8,7.4-12.6,9.4-16.3,10.4c-5,1.3-66.1,12.6-87.9-4.6
			c-21.8-17.2,11.7-73.2,32.2-89.2c0,0-14.7-20.5-9.6-30.1c5.2-3.2,14.9-4.1,25.1-3.7c-4,2.8-10,7.5-10.2,11
			c-0.3,5.3,6.5,25.3,6.5,25.3s-22.9,33.7-24.7,55.6c-1.9,21.9,9,28.7,26.9,30C236.3,589.4,256.2,592,277.3,583.1z"/>
		<path class="st2" d="M236.7,549.2c-2.5-2.7-2.9-3.4-8.2-5.3v-9.8c1.7,1.9,1.5,4.1,1.5,4.1l8.1-1.4c0,0-1-8-9.6-11v-5.2
			c0,0-3.7-0.2-3.9,0c-0.1,0.1-0.1,1.7-0.1,4.3c-1.4-0.2-2.6-0.2-3.8-0.1v-4.2c0,0-3.7-0.2-3.9,0c-0.1,0.1-0.1,1.9-0.1,4.9
			c-4.7,1.5-7.8,4.8-9.3,7.4c-2.3,4.2-0.9,9.3,4.1,12.7c2,1.4,3.9,2.3,5.6,2.9c0.1,4.4,0.2,8.8,0.3,12.7c-2.2-1.8-3.9-4.4-5-7.4
			c-1.7,0.5-7.1,3.7-7.1,3.7s2.6,10.9,12.1,13.2c0.1,0,0.2,0,0.3,0.1c0.1,3.4,0.1,5.4,0.1,5.4h3v-4.8c1.5,0.2,3.1,0.3,4.7,0.2
			c0.1,2.9,0.1,4.7,0.1,4.7h3v-5.2c1.8-0.5,3.6-1.3,5.3-2.7C239.2,564.3,242.3,555.4,236.7,549.2z M223.6,531.7
			c0.4,0.1,0.7,0.1,1.1,0.2c0,3.2,0.1,6.9,0.2,10.8c-1.4-0.4-2.8-0.8-4.1-1.2v-10C221.7,531.5,222.6,531.5,223.6,531.7z
			 M214.5,536.4c0.4-1.6,1.2-2.7,2.3-3.5c0,2.3,0.1,4.8,0.1,7.4C215.1,539.3,214.1,538.2,214.5,536.4z M220.7,563.2v-13.6
			c1.5,0.4,2.9,0.7,4.3,1.2c0.1,4.5,0.2,9,0.3,12.9C223.6,563.9,222.1,563.7,220.7,563.2z M228.5,562.5V553
			C231.7,556.2,231.5,560.4,228.5,562.5z"/>
		<path class="st2" d="M273.1,560.5c-1-8-5.6-16.4-9.7-23.3c-2.3-3.8-4.8-7.5-7.5-11c-2.8-3.7-6.7-7.2-8.8-11.3
			c-2.2-4.1-8.6,1.1-4.1,4.3c6.4,4.5,11.1,14.8,14.6,21.6c3.6,6.9,5.7,14.8,9.5,21.5C268.6,564.9,273.5,563.8,273.1,560.5z"/>
		<path class="st2" d="M188,583.8c-7.5-5.9-13.4-15.2-8.8-24.8c1.7-3.6-3.2-6.3-5.4-3c-4.1,6.1-6,13-3.4,20.1
			c2.4,6.8,7.6,11.7,14.7,12.9C187.8,589.5,190.6,585.9,188,583.8z"/>
		<g>
			<path class="st2" d="M168.8,539.7l7.8,6.3c0,0,2.9,7.5-7,26.1c-10.4,19.5-16.5,17.8-16.5,17.8l-8.3-3.5L168.8,539.7z"/>
			<path class="st2" d="M143.4,584.3c-1.5-6.3,5.1-21.2,6-23.2c7-15,12.9-22.5,17.9-21.8c6.2,0.9,1.8,14.5,0.8,17.8
				c-2.7,9.1-7.6,17.8-13.6,25.1c-1.5,1.9-3.3,3.8-5.6,4.5C145.6,587.8,144,586.6,143.4,584.3z"/>
			<path class="st2" d="M166.1,545.3c-1.1-3-6.2,0.5-12.8,13.2c-6.6,12.7-7.7,21.3-5.7,23.3C150.2,584.4,168.9,553,166.1,545.3z"/>
		</g>
		<g>
			<path class="st2" d="M321,583.9l-1.8,7.6c0,0-4.3,4.6-20.9,3.9c-17.4-0.8-18.3-5.6-18.3-5.6l-0.3-7.1L321,583.9z"/>
			<path class="st2" d="M280.8,581.1c4-3.2,16.7-3.6,18.5-3.6c13-0.1,20.3,1.5,21.5,5.3c1.5,4.7-9.7,6.2-12.4,6.6
				c-7.4,1.2-15.2,0.6-22.4-1.1c-1.9-0.4-3.8-1-5.1-2.5C279,583.8,279.3,582.3,280.8,581.1z"/>
			<path class="st2" d="M316.1,583.8c1.8-1.8-2.5-4.2-13.7-4.6c-11.3-0.3-17.7,1.8-18.4,3.9C283,585.9,311.6,588.5,316.1,583.8z"/>
		</g>
		<g>
			<path class="st2" d="M326.4,576l-1.8,7.6c0,0-4.3,4.6-20.9,3.9c-17.4-0.8-18.3-5.6-18.3-5.6l-0.3-7.1L326.4,576z"/>
			<path class="st2" d="M286.1,573.2c4-3.2,16.7-3.6,18.5-3.6c13-0.1,20.3,1.5,21.5,5.3c1.5,4.7-9.7,6.2-12.4,6.6
				c-7.4,1.2-15.2,0.6-22.4-1.1c-1.9-0.4-3.8-1-5.1-2.5C284.4,576,284.7,574.4,286.1,573.2z"/>
			<path class="st2" d="M321.5,576c1.8-1.8-2.5-4.2-13.7-4.6c-11.3-0.3-17.7,1.8-18.4,3.9C288.3,578,316.9,580.6,321.5,576z"/>
		</g>
		<g>
			<path class="st2" d="M327.6,568.6l-1.8,7.6c0,0-4.3,4.6-20.9,3.9c-17.4-0.8-18.3-5.6-18.3-5.6l-0.3-7.1L327.6,568.6z"/>
			<path class="st2" d="M287.4,565.8c4-3.2,16.7-3.6,18.5-3.6c13-0.1,20.3,1.5,21.5,5.3c1.5,4.7-9.7,6.2-12.4,6.6
				c-7.4,1.2-15.2,0.6-22.4-1.1c-1.9-0.4-3.8-1-5.1-2.5C285.7,568.5,285.9,567,287.4,565.8z"/>
			<path class="st2" d="M322.7,568.6c1.8-1.8-2.5-4.2-13.7-4.6c-11.3-0.3-17.7,1.8-18.4,3.9C289.6,570.6,318.2,573.2,322.7,568.6z"
				/>
		</g>
		<g>
			<path class="st2" d="M319.8,561.2l-1.8,7.6c0,0-4.3,4.6-20.9,3.9c-17.4-0.8-18.3-5.6-18.3-5.6l-0.3-7.1L319.8,561.2z"/>
			<path class="st2" d="M279.5,558.4c4-3.2,16.7-3.6,18.5-3.6c13-0.1,20.3,1.5,21.5,5.3c1.5,4.7-9.7,6.2-12.4,6.6
				c-7.4,1.2-15.2,0.6-22.4-1.1c-1.9-0.4-3.8-1-5.1-2.5C277.8,561.1,278.1,559.5,279.5,558.4z"/>
			<path class="st2" d="M314.9,561.1c1.8-1.8-2.5-4.2-13.7-4.6c-11.3-0.3-17.7,1.8-18.4,3.9C281.7,563.2,310.3,565.8,314.9,561.1z"
				/>
		</g>
		<g>
			<path class="st2" d="M327.6,554.1l-1.8,7.6c0,0-4.3,4.6-20.9,3.9c-17.4-0.8-18.3-5.6-18.3-5.6l-0.3-7.1L327.6,554.1z"/>
			<path class="st2" d="M287.4,551.3c4-3.2,16.7-3.6,18.5-3.6c13-0.1,20.3,1.5,21.5,5.3c1.5,4.7-9.7,6.2-12.4,6.6
				c-7.4,1.2-15.2,0.6-22.4-1.1c-1.9-0.4-3.8-1-5.1-2.5C285.7,554.1,285.9,552.5,287.4,551.3z"/>
			<path class="st2" d="M322.7,554.1c1.8-1.8-2.5-4.2-13.7-4.6c-11.3-0.3-17.7,1.8-18.4,3.9C289.6,556.1,318.2,558.7,322.7,554.1z"
				/>
		</g>
		<g>
			<path class="st2" d="M327.6,546.7l-1.8,7.6c0,0-4.3,4.6-20.9,3.9c-17.4-0.8-18.3-5.6-18.3-5.6l-0.3-7.1L327.6,546.7z"/>
			<path class="st2" d="M287.4,543.9c4-3.2,16.7-3.6,18.5-3.6c13-0.1,20.3,1.5,21.5,5.3c1.5,4.7-9.7,6.2-12.4,6.6
				c-7.4,1.2-15.2,0.6-22.4-1.1c-1.9-0.4-3.8-1-5.1-2.5C285.7,546.6,285.9,545.1,287.4,543.9z"/>
			<path class="st2" d="M322.7,546.6c1.8-1.8-2.5-4.2-13.7-4.6c-11.3-0.3-17.7,1.8-18.4,3.9C289.6,548.7,318.2,551.3,322.7,546.6z"
				/>
		</g>
		<g>
			<path class="st2" d="M327.6,539.2l-1.8,7.6c0,0-4.3,4.6-20.9,3.9c-17.4-0.8-18.3-5.6-18.3-5.6l-0.3-7.1L327.6,539.2z"/>
			<path class="st2" d="M287.4,536.4c4-3.2,16.7-3.6,18.5-3.6c13-0.1,20.3,1.5,21.5,5.3c1.5,4.7-9.7,6.2-12.4,6.6
				c-7.4,1.2-15.2,0.6-22.4-1.1c-1.9-0.4-3.8-1-5.1-2.5C285.7,539.2,285.9,537.6,287.4,536.4z"/>
			<path class="st2" d="M322.7,539.2c1.8-1.8-2.5-4.2-13.7-4.6c-11.3-0.3-17.7,1.8-18.4,3.9C289.6,541.2,318.2,543.8,322.7,539.2z"
				/>
		</g>
		<g>
			<path class="st2" d="M319.8,531.8l-1.8,7.6c0,0-4.3,4.6-20.9,3.9c-17.4-0.8-18.3-5.6-18.3-5.6l-0.3-7.1L319.8,531.8z"/>
			<path class="st2" d="M279.5,529c4-3.2,16.7-3.6,18.5-3.6c13-0.1,20.3,1.5,21.5,5.3c1.5,4.7-9.7,6.2-12.4,6.6
				c-7.4,1.2-15.2,0.6-22.4-1.1c-1.9-0.4-3.8-1-5.1-2.5C277.8,531.7,278.1,530.2,279.5,529z"/>
			<path class="st2" d="M314.9,531.8c1.8-1.8-2.5-4.2-13.7-4.6c-11.3-0.3-17.7,1.8-18.4,3.9C281.7,533.8,310.3,536.4,314.9,531.8z"
				/>
		</g>
		<g>
			<path class="st2" d="M326.4,524l-1.8,7.6c0,0-4.3,4.6-20.9,3.9c-17.4-0.8-18.3-5.6-18.3-5.6l-0.3-7.1L326.4,524z"/>
			<path class="st2" d="M286.1,521.2c4-3.2,16.7-3.6,18.5-3.6c13-0.1,20.3,1.5,21.5,5.3c1.5,4.7-9.7,6.2-12.4,6.6
				c-7.4,1.2-15.2,0.6-22.4-1.1c-1.9-0.4-3.8-1-5.1-2.5C284.4,523.9,284.7,522.3,286.1,521.2z"/>
			<path class="st2" d="M321.5,523.9c1.8-1.8-2.5-4.2-13.7-4.6c-11.3-0.3-17.7,1.8-18.4,3.9C288.3,525.9,316.9,528.5,321.5,523.9z"
				/>
		</g>
		<g>
			<path class="st2" d="M325.2,516.1l-1.8,7.6c0,0-4.3,4.6-20.9,3.9c-17.4-0.8-18.3-5.6-18.3-5.6l-0.3-7.1L325.2,516.1z"/>
			<path class="st2" d="M284.9,513.3c4-3.2,16.7-3.6,18.5-3.6c13-0.1,20.3,1.5,21.5,5.3c1.5,4.7-9.7,6.2-12.4,6.6
				c-7.4,1.2-15.2,0.6-22.4-1.1c-1.9-0.4-3.8-1-5.1-2.5C283.2,516,283.5,514.5,284.9,513.3z"/>
			<path class="st2" d="M320.3,516c1.8-1.8-2.5-4.2-13.7-4.6c-11.3-0.3-17.7,1.8-18.4,3.9C287.1,518.1,315.7,520.7,320.3,516z"/>
		</g>
		<g>
			<path class="st2" d="M323.9,508.2l-1.8,7.6c0,0-4.3,4.6-20.9,3.9c-17.4-0.8-18.3-5.6-18.3-5.6l-0.3-7.1L323.9,508.2z"/>
			<path class="st2" d="M283.7,505.4c4-3.2,16.7-3.6,18.5-3.6c13-0.1,20.3,1.5,21.5,5.3c1.5,4.7-9.7,6.2-12.4,6.6
				c-7.4,1.2-15.2,0.6-22.4-1.1c-1.9-0.4-3.8-1-5.1-2.5C281.9,508.2,282.2,506.6,283.7,505.4z"/>
			<path class="st2" d="M319,508.2c1.8-1.8-2.5-4.2-13.7-4.6c-11.3-0.3-17.7,1.8-18.4,3.9C285.9,510.2,314.5,512.8,319,508.2z"/>
		</g>
		<g>
			<g>
				<path class="st2" d="M379.3,586.8l-1.8,7.6c0,0-4.3,4.6-20.9,3.9c-17.4-0.8-18.3-5.6-18.3-5.6l-0.3-7.1L379.3,586.8z"/>
				<path class="st2" d="M339,584c4-3.2,16.7-3.6,18.5-3.6c13-0.1,20.3,1.5,21.5,5.3c1.5,4.7-9.7,6.2-12.4,6.6
					c-7.4,1.2-15.2,0.6-22.4-1.1c-1.9-0.4-3.8-1-5.1-2.5C337.3,586.7,337.6,585.2,339,584z"/>
				<path class="st2" d="M374.4,586.7c1.8-1.8-2.5-4.2-13.7-4.6c-11.3-0.3-17.7,1.8-18.4,3.9C341.3,588.8,369.9,591.4,374.4,586.7z"
					/>
			</g>
			<g>
				<path class="st2" d="M376.8,578.1l-1.8,7.6c0,0-4.3,4.6-20.9,3.9c-17.4-0.8-18.3-5.6-18.3-5.6l-0.3-7.1L376.8,578.1z"/>
				<path class="st2" d="M336.6,575.3c4-3.2,16.7-3.6,18.5-3.6c13-0.1,20.3,1.5,21.5,5.3c1.5,4.7-9.7,6.2-12.4,6.6
					c-7.4,1.2-15.2,0.6-22.4-1.1c-1.9-0.4-3.8-1-5.1-2.5C334.9,578,335.1,576.5,336.6,575.3z"/>
				<path class="st2" d="M371.9,578.1c1.8-1.8-2.5-4.2-13.7-4.6c-11.3-0.3-17.7,1.8-18.4,3.9C338.8,580.1,367.4,582.7,371.9,578.1z"
					/>
			</g>
			<g>
				<path class="st2" d="M374.4,569.4l-1.8,7.6c0,0-4.3,4.6-20.9,3.9c-17.4-0.8-18.3-5.6-18.3-5.6l-0.3-7.1L374.4,569.4z"/>
				<path class="st2" d="M334.1,566.6c4-3.2,16.7-3.6,18.5-3.6c13-0.1,20.3,1.5,21.5,5.3c1.5,4.7-9.7,6.2-12.4,6.6
					c-7.4,1.2-15.2,0.6-22.4-1.1c-1.9-0.4-3.8-1-5.1-2.5C332.4,569.4,332.7,567.8,334.1,566.6z"/>
				<path class="st2" d="M369.5,569.4c1.8-1.8-2.5-4.2-13.7-4.6c-11.3-0.3-17.7,1.8-18.4,3.9C336.3,571.4,364.9,574,369.5,569.4z"/>
			</g>
			<g>
				<path class="st2" d="M371.9,560.7l-1.8,7.6c0,0-4.3,4.6-20.9,3.9c-17.4-0.8-18.3-5.6-18.3-5.6l-0.3-7.1L371.9,560.7z"/>
				<path class="st2" d="M331.6,557.9c4-3.2,16.7-3.6,18.5-3.6c13-0.1,20.3,1.5,21.5,5.3c1.5,4.7-9.7,6.2-12.4,6.6
					c-7.4,1.2-15.2,0.6-22.4-1.1c-1.9-0.4-3.8-1-5.1-2.5C329.9,560.7,330.2,559.1,331.6,557.9z"/>
				<path class="st2" d="M367,560.7c1.8-1.8-2.5-4.2-13.7-4.6c-11.3-0.3-17.7,1.8-18.4,3.9C333.8,562.7,362.4,565.3,367,560.7z"/>
			</g>
		</g>
		<g>
			<path class="st2" d="M423.4,579.2l-1.6,6.8c0,0-3.9,4.2-18.7,3.5c-15.5-0.7-16.3-5-16.3-5l-0.3-6.3L423.4,579.2z"/>
			<path class="st2" d="M387.3,576.7c3.5-2.9,14.9-3.2,16.5-3.2c11.6-0.1,18.1,1.3,19.2,4.7c1.4,4.2-8.7,5.6-11.1,5.9
				c-6.6,1-13.6,0.6-20.1-1c-1.7-0.4-3.4-0.9-4.6-2.2C385.8,579.2,386.1,577.8,387.3,576.7z"/>
			<path class="st2" d="M419,579.2c1.6-1.6-2.2-3.8-12.3-4.1c-10.1-0.3-15.8,1.6-16.5,3.5C389.3,581,414.9,583.3,419,579.2z"/>
		</g>
		<g>
			<path class="st2" d="M421.1,571.5l-1.6,6.8c0,0-3.9,4.2-18.7,3.5c-15.5-0.7-16.3-5-16.3-5l-0.3-6.3L421.1,571.5z"/>
			<path class="st2" d="M385.1,569c3.5-2.9,14.9-3.2,16.5-3.2c11.6-0.1,18.1,1.3,19.2,4.7c1.4,4.2-8.7,5.6-11.1,5.9
				c-6.6,1-13.6,0.6-20.1-1c-1.7-0.4-3.4-0.9-4.6-2.2C383.6,571.4,383.8,570,385.1,569z"/>
			<path class="st2" d="M416.7,571.4c1.6-1.6-2.2-3.8-12.3-4.1c-10.1-0.3-15.8,1.6-16.5,3.5C387.1,573.2,412.7,575.6,416.7,571.4z"
				/>
		</g>
		<g>
			<path class="st2" d="M418.9,563.7l-1.6,6.8c0,0-3.9,4.2-18.7,3.5c-15.5-0.7-16.3-5-16.3-5l-0.3-6.3L418.9,563.7z"/>
			<path class="st2" d="M382.9,561.2c3.5-2.9,14.9-3.2,16.5-3.2c11.6-0.1,18.1,1.3,19.2,4.7c1.4,4.2-8.7,5.6-11.1,5.9
				c-6.6,1-13.6,0.6-20.1-1c-1.7-0.4-3.4-0.9-4.6-2.2C381.4,563.6,381.6,562.2,382.9,561.2z"/>
			<path class="st2" d="M414.5,563.7c1.6-1.6-2.2-3.8-12.3-4.1c-10.1-0.3-15.8,1.6-16.5,3.5C384.9,565.5,410.4,567.8,414.5,563.7z"
				/>
		</g>
		<g>
			<path class="st2" d="M425,555.9l-1.6,6.8c0,0-3.9,4.2-18.7,3.5c-15.5-0.7-16.3-5-16.3-5l-0.3-6.3L425,555.9z"/>
			<path class="st2" d="M388.9,553.4c3.5-2.9,14.9-3.2,16.5-3.2c11.6-0.1,18.1,1.3,19.2,4.7c1.4,4.2-8.7,5.6-11.1,5.9
				c-6.6,1-13.6,0.6-20.1-1c-1.7-0.4-3.4-0.9-4.6-2.2C387.4,555.9,387.7,554.5,388.9,553.4z"/>
			<path class="st2" d="M420.6,555.9c1.6-1.6-2.2-3.8-12.3-4.1c-10.1-0.3-15.8,1.6-16.5,3.5C390.9,557.7,416.5,560,420.6,555.9z"/>
		</g>
		<g>
			<path class="st2" d="M371.9,552.1l-1.8,7.6c0,0-4.3,4.6-20.9,3.9c-17.4-0.8-18.3-5.6-18.3-5.6l-0.3-7.1L371.9,552.1z"/>
			<path class="st2" d="M331.6,549.3c4-3.2,16.7-3.6,18.5-3.6c13-0.1,20.3,1.5,21.5,5.3c1.5,4.7-9.7,6.2-12.4,6.6
				c-7.4,1.2-15.2,0.6-22.4-1.1c-1.9-0.4-3.8-1-5.1-2.5C329.9,552,330.2,550.4,331.6,549.3z"/>
			<path class="st2" d="M367,552c1.8-1.8-2.5-4.2-13.7-4.6c-11.3-0.3-17.7,1.8-18.4,3.9C333.8,554.1,362.4,556.7,367,552z"/>
		</g>
		<g>
			<path class="st2" d="M373.5,543.4l-1.8,7.6c0,0-4.3,4.6-20.9,3.9c-17.4-0.8-18.3-5.6-18.3-5.6l-0.3-7.1L373.5,543.4z"/>
			<path class="st2" d="M333.3,540.6c4-3.2,16.7-3.6,18.5-3.6c13-0.1,20.3,1.5,21.5,5.3c1.5,4.7-9.7,6.2-12.4,6.6
				c-7.4,1.2-15.2,0.6-22.4-1.1c-1.9-0.4-3.8-1-5.1-2.5C331.6,543.3,331.8,541.8,333.3,540.6z"/>
			<path class="st2" d="M368.6,543.3c1.8-1.8-2.5-4.2-13.7-4.6c-11.3-0.3-17.7,1.8-18.4,3.9C335.5,545.4,364.1,548,368.6,543.3z"/>
		</g>
		<g>
			<path class="st2" d="M373.5,535.1l-1.8,7.6c0,0-4.3,4.6-20.9,3.9c-17.4-0.8-18.3-5.6-18.3-5.6l-0.3-7.1L373.5,535.1z"/>
			<path class="st2" d="M333.3,532.3c4-3.2,16.7-3.6,18.5-3.6c13-0.1,20.3,1.5,21.5,5.3c1.5,4.7-9.7,6.2-12.4,6.6
				c-7.4,1.2-15.2,0.6-22.4-1.1c-1.9-0.4-3.8-1-5.1-2.5C331.6,535,331.8,533.5,333.3,532.3z"/>
			<path class="st2" d="M368.6,535.1c1.8-1.8-2.5-4.2-13.7-4.6c-11.3-0.3-17.7,1.8-18.4,3.9C335.5,537.1,364.1,539.7,368.6,535.1z"
				/>
		</g>
	</g>
	<g>
		<path class="st35" d="M222.1,503.2c-0.1-1-0.7-1.7-1.6-2.1c-0.8-0.3-1.8-0.2-2.6-0.3c-0.8,0-1.5,0-2.3,0c-1.5,0-3.1-0.1-4.6-0.1
			c-1.1,0-2,1-2,2c0,1.2,1,1.9,2,2c1.4,0.1,2.9,0.2,4.3,0.4c1.7,0.2,3.5,0.6,5.2,0.2C221.4,505.1,222.1,504.1,222.1,503.2z"/>
		<path class="st35" d="M241.4,504.2c-0.1-2.6-3.9-1.4-5.5-1.3c-0.9,0-1.9,0-2.8-0.1c-0.4,0-0.8-0.1-1.2-0.1c-0.2,0-0.4-0.2-0.6-0.1
			c0,0-0.1,0-0.1,0c-0.1-0.1-0.2-0.1-0.2-0.2c-1.1-0.9-2.7-0.7-3.2,0.7c-0.6,1.4,0.5,2.6,1.9,2.8c0.8,0.1,1.5,0.4,2.3,0.6
			c1,0.3,1.9,0.4,2.9,0.5c1.9,0.1,4-0.1,5.7-1.2C241.1,505.3,241.4,504.8,241.4,504.2z"/>
	</g>
</g>
</svg>
